<?xml version="1.0" encoding="UTF-8"?>
<!DOCTYPE svg  PUBLIC '-//W3C//DTD SVG 1.1//EN'  'http://www.w3.org/Graphics/SVG/1.1/DTD/svg11.dtd'>
<svg version="1.1" xmlns="http://www.w3.org/2000/svg">
<defs>
<font id="Chaloops-Bold" horiz-adv-x="648">
<font-face font-family="s" font-weight="400" ascent="661" bbox="-111 -471 968 1066" cap-height="689" descent="-339" panose-1="2 0 5 6 3 0 0 2 0 4" underline-position="-153" underline-thickness="20" unicode-range="U+0020-00FE" units-per-em="1000" x-height="499"/>
<missing-glyph/>
<glyph glyph-name="space" horiz-adv-x="268" unicode=" "/>
<glyph d="M124 172q-16 1 -34 5t-28 7l-10 3q1 5 1.5 14.5t3.5 37t5.5 52.5t5 57t4.5 55.5t3 42t1 23.5l16 305l187 -19q-2 -20 -23 -248q-10 -58 -20 -145l-24 -190q-50 -7 -88 0zM187 -10q0 -36 -24 -64t-64 -28t-63 25t-23 63q0 36 25 62t64 26q34 0 59.5 -24.5t25.5 -59.5z" glyph-name="exclam" horiz-adv-x="302" unicode="!"/>
<glyph d="M201 695l-2 -34q-11 -88 -12 -115q-1 -20 -0.5 -80.5t3.5 -84.5q-14 -9 -67 -9.5t-75 4.5q-4 134 -7 175q-7 112 -7 146q111 8 167 -2zM431 727l-2 -35q-10 -87 -11 -114q-7 -106 -15 -159q-15 -9 -60.5 -14t-68.5 0l-3 177q2 11 1 36t-2.5 48t-3.5 42l-2 20 q111 9 167 -1z" glyph-name="quotedbl" horiz-adv-x="488" unicode='"'/>
<glyph d="M583 406l-37 6q-13 2 -67 5q0 -1 -19 -79q-4 -14 -5 -17l94 -10l-19 -103q-58 -2 -103 3l-37 -167l-122 2q18 95 32 158l4 16q-7 0 -28.5 1t-27.5 1l-33 -171l-121 7q17 86 31 167l-115 4l38 104q26 2 97 6l12 56l6 33l-103 2l41 110l85 1l24 114l119 -4 q-11 -60 -23 -117q26 -3 74 -1l27 121l121 -17q-17 -68 -21 -114q14 -1 52.5 -1.5t47.5 -1.5zM352 424l-67 2q-14 -71 -17 -90q13 -1 29.5 -1.5t34.5 -2.5q1 12 10 49.5t10 42.5z" glyph-name="numbersign" horiz-adv-x="619" unicode="#"/>
<glyph d="M451 530l-78 -67q-15 44 -59 57q-6 -52 -8 -68q-7 -59 -9 -80q87 -25 125 -77t24 -126q-11 -56 -69 -82t-113 -21q-6 -57 -44 -220l-95 14q37 124 37 218q-64 33 -142 107l69 75q31 -28 92 -68q4 44 11 110l-24 6q-66 17 -107 63.5t-29 101.5q12 53 67.5 98t117.5 50 q5 78 5 183q19 5 53 0t52 -16q8 -57 -4 -168q49 -16 65 -26q41 -28 63 -64zM277 158q21 -3 42 8t23 25q3 25 -11.5 45.5t-45.5 25.5q-1 -6 -3.5 -44.5t-4.5 -59.5zM156 449q-7 -28 45 -46q3 25 11 106q-48 -28 -56 -60z" glyph-name="dollar" horiz-adv-x="475" unicode="$"/>
<glyph d="M502 535l-17 -20q-122 -170 -164 -239l-162 -255l-88 61q115 173 156 244q20 32 66.5 99.5t82.5 118.5l37 52zM174 559h-1q59 -24 59 -84q0 -32 -18.5 -62t-48.5 -45q-30 -11 -57 -11q-64 0 -83 44q-12 22 -12 48q0 40 24 73q34 43 95 43q26 0 42 -6zM555 211 q0 -27 -9.5 -50.5t-19.5 -33.5l-10 -10q-29 -13 -63 -13q-19 0 -37 7v-1q-20 9 -42 30.5t-22 47.5q0 25 28.5 60.5t69.5 42.5q27 2 48.5 -7.5t32.5 -24.5t17 -27.5t7 -20.5z" glyph-name="percent" horiz-adv-x="594" unicode="%"/>
<glyph d="M610 74l-105 -117q-20 11 -39.5 28t-38 37.5t-24.5 25.5q-26 -33 -73.5 -59t-93.5 -26q-92 0 -146 48q-32 32 -48.5 81.5t-16.5 97.5q0 56 35 112.5t83 75.5q-5 7 -18.5 24t-14.5 19l1 -1q-12 21 -21.5 58.5t-9.5 62.5q0 71 17 112q15 36 63 58t103 22q40 0 78.5 -12.5 t57.5 -37.5q30 -40 30 -127q0 -53 -32 -119q-22 -40 -64 -75q12 -16 70 -90q15 30 74 123q46 -13 97 -94q-74 -72 -91 -123q13 -13 34.5 -31t52 -41.5t40.5 -31.5zM250 97q33 0 71 48q-65 81 -105 134q-35 -28 -35 -95q0 -35 17 -61t52 -26zM248 474q22 12 37 35.5t14 46.5 q-1 14 -2.5 20.5t-6.5 15.5t-15 12t-26 3q-10 -4 -16.5 -19t-6.5 -30q0 -19 8 -47.5t14 -36.5z" glyph-name="ampersand" horiz-adv-x="625" unicode="&amp;"/>
<glyph d="M192 695l-3 -34q-10 -88 -11 -115q-1 -20 -0.5 -80.5t3.5 -84.5q-14 -9 -67 -9.5t-75 4.5q-5 134 -8 175q-6 96 -6 146q111 8 167 -2z" glyph-name="quotesingle" horiz-adv-x="220" unicode="'"/>
<glyph d="M325 -30l-118 -95q-197 246 -197 477q0 62 9.5 119t35.5 128.5t41.5 107.5t57.5 130l143 -64l-40 -86v1q-27 -50 -36 -81l-7 -25q-42 -138 -42 -215q0 -101 40.5 -204t112.5 -193z" glyph-name="parenleft" horiz-adv-x="296" unicode="("/>
<glyph d="M303 336q4 -229 -189 -481l-119 94q150 196 147 400q-2 76 -44 212l-6 15t-5 14l1 -1q-11 38 -38 83q-2 4 -20 38t-22 43l145 65q1 -4 28 -64v1q41 -88 61.5 -137.5t40 -127t20.5 -154.5z" glyph-name="parenright" horiz-adv-x="315" unicode=")"/>
<glyph d="M487 670l-133 -113l62 -173l-38 -39l-137 98q-11 -12 -43 -54.5t-48 -60.5l-64 26q16 73 40 157q-76 41 -101 51l9 54l133 30q31 94 61 162l59 -17l25 -114q68 16 145 40z" glyph-name="asterisk" horiz-adv-x="522" unicode="*"/>
<glyph d="M485 378l-7 -136q-11 -1 -28.5 -2t-58.5 -2t-67 0q-1 -32 1.5 -75t4.5 -70l3 -27l-142 25q-2 9 -4.5 25t-6 56t-2.5 69l-133 2q-5 11 -5.5 41t1.5 55l2 25q105 6 135 10l-1 179l143 -20q1 -10 2 -26.5t2.5 -57t1.5 -68.5z" glyph-name="plus" horiz-adv-x="522" unicode="+"/>
<glyph d="M213 37q0 -48 -43 -100.5t-107 -94.5l-47 89q23 12 46 35.5t23 38.5v2q-59 11 -59 76q0 34 28 59t68 25q48 0 69.5 -36.5t21.5 -93.5z" glyph-name="comma" horiz-adv-x="250" unicode=","/>
<glyph d="M420 261l-47 -41q-32 -4 -154 -8q-127 -4 -203 -11l-12 143q69 6 196 11q121 4 209 14z" glyph-name="hyphen" horiz-adv-x="434" unicode="-"/>
<glyph d="M228 85q0 -39 -27 -69.5t-71 -30.5t-69 27.5t-25 68.5q0 39 27.5 67.5t70.5 28.5q38 0 66 -26.5t28 -65.5z" glyph-name="period" horiz-adv-x="265" unicode="."/>
<glyph d="M546 790l-36 -53q-138 -252 -189 -356q-13 -26 -58 -113t-74.5 -145t-60.5 -123t-41 -92q-12 3 -34.5 12.5t-39.5 17.5l-17 7l231 474q176 378 186 411q28 4 69 -8.5t64 -31.5z" glyph-name="slash" horiz-adv-x="522" unicode="/"/>
<glyph d="M586 271q0 -125 -75.5 -208t-195.5 -83q-153 0 -224.5 75.5t-71.5 210.5q0 88 27 173t76 131q38 36 72.5 47.5t104.5 11.5q45 0 97 -22t77 -47q44 -42 78.5 -133.5t34.5 -155.5zM416 271q0 41 -18 100.5t-43 84.5q-9 8 -31 19t-25 11q-28 0 -38 -3.5t-24 -16.5 q-14 -12 -32 -74t-18 -109q0 -85 26 -120t110 -35q34 0 59 28q34 35 34 115z" glyph-name="zero" horiz-adv-x="613" unicode="0"/>
<glyph d="M418 -22l-368 -14l-2 144l99 2q-4 112 -3 150q1 42 5 115q0 3 0.5 9.5t0.5 10.5q-30 -38 -41 -49l-77 123q47 70 67 94l23 28q45 56 68 82q50 17 133 -4q2 -71 2 -120q0 -71 -2 -97v1q-7 -131 -7 -235q0 -78 1 -101q21 1 57 2.5t42 1.5z" glyph-name="one" horiz-adv-x="457" unicode="1"/>
<glyph d="M529 185l-7 -164q-60 5 -64 5q-44 4 -127.5 -6.5t-151.5 -29.5l-83 -23l-70 91q98 106 124 137q42 52 103 158q16 31 28 72t12 66q0 16 -20 33t-35 17q-8 0 -26 -11t-25 -20q-17 -24 -63 -101l-116 91q35 59 49 80q5 8 11 15t10 11.5t12.5 12t11.5 10t14 11.5t13 11 q41 32 127 32q76 0 144.5 -63.5t62.5 -136.5q-4 -84 -61 -188h1q-11 -21 -31.5 -46.5t-48.5 -56.5t-42 -48q45 16 109 28q65 13 139 13z" glyph-name="two" horiz-adv-x="553" unicode="2"/>
<glyph d="M544 36h-1q-29 -79 -108.5 -121.5t-176.5 -42.5q-137 0 -215 68q-7 6 -12 10t-8.5 7t-8.5 8l65 152q45 -50 45 -51q50 -50 120 -50q47 0 87 16t53 53q12 35 12 61q0 43 -25 66q-27 6 -84 6q-9 0 -40.5 -0.5t-33.5 -0.5l-38 79q77 101 93 125l5 6q-73 2 -220 2l8 149 q167 -6 205 -7l202 -10l38 -70q-59 -57 -121 -142q82 -9 106 -33q75 -83 75 -170q0 -52 -22 -110z" glyph-name="three" horiz-adv-x="582" unicode="3"/>
<glyph d="M573 332l-7 -163l-110 9q-9 -117 -9 -251l-171 2q4 73 6 124q1 16 2 63.5t2 63.5q-59 5 -114 5q-21 0 -64.5 -4t-44.5 -4q-3 8 -10 26t-8 21q-16 34 -22 54q35 85 74.5 160.5t98.5 150.5t118 108q0 9 1 13q86 -8 167 -28q-16 -98 -19 -157q-9 -63 -11 -202zM294 322 l13 171q-33 -30 -70.5 -85t-51.5 -89q6 -1 55 1t54 2z" glyph-name="four" horiz-adv-x="617" unicode="4"/>
<glyph d="M489 131q-8 -78 -38 -146t-79 -105q-58 -45 -153 -45q-57 0 -95.5 18.5t-94.5 68.5l53 132q49 -41 58 -46q37 -25 79 -25q28 0 49 15h-1q16 12 33 49t25 85q3 21 3 45q0 64 -17 86v-1q-23 24 -132 24q-37 0 -131 -10l-3 135q1 29 -2 61.5t-9.5 74.5t-7.5 51q22 -2 54 0.5 t70.5 7.5t52.5 6q96 13 184 37l27 -155q-7 -8 -61 -6.5t-98.5 5t-77.5 7.5q0 -4 1.5 -24.5t2.5 -39t2 -24.5q52 4 53 4q104 0 156 -30q100 -59 100 -202q0 -27 -3 -53z" glyph-name="five" horiz-adv-x="522" unicode="5"/>
<glyph d="M445 223q0 -78 -56 -146.5t-139 -68.5q-97 0 -153.5 74.5t-56.5 168.5q0 133 83 280q53 94 115 155l95 -134q-41 -39 -75 -97q-35 -62 -53 -122q43 30 95 30q69 0 107 -39t38 -101zM243 144q23 -6 45.5 8.5t25.5 34.5q4 16 -5.5 33t-32.5 20q-30 0 -51 -11.5t-23 -26.5 q-3 -25 7 -37t34 -21z" glyph-name="six" horiz-adv-x="483" unicode="6"/>
<glyph d="M463 589l-4 -27q-15 -29 -34 -94q-12 -36 -37 -136q-2 -5 -5.5 -18t-5.5 -20q4 0 11 -0.5t10 -0.5q6 0 36 -0.5t32 -0.5l-1 -145q-8 0 -54.5 1.5t-70.5 2.5l-92 -336l-140 40q25 165 65 303l-58 3l7 141q67 0 89 -2h1q17 64 48 172q10 34 17 62h-1l-272 9l24 145l116 -1 l300 -25z" glyph-name="seven" horiz-adv-x="511" unicode="7"/>
<glyph d="M499 330v1q5 -27 5 -55q0 -61 -21 -124.5t-72 -103.5q-39 -29 -92 -49t-103 -20q-65 0 -103 35q-32 28 -50.5 63.5t-23.5 58.5t-10 61q-2 54 15 89q17 33 65 79q-27 18 -41 33q-48 55 -48 117q0 51 36 123h-1q22 45 65 75t92 30q71 0 131.5 -61t60.5 -131q0 -63 -50 -113 q47 12 92 -27t53 -81zM344 267q-3 33 -16.5 48.5t-45.5 14.5q-13 0 -42 -24q-19 -16 -30 -43.5t-10 -48.5q0 -92 40 -92q47 0 81 35h-1q13 11 19.5 45t4.5 65zM257 576q-4 11 -19.5 20.5t-31.5 4.5q-16 -8 -25 -36.5t-9 -60.5q0 -23 9 -29.5t37 -9.5q1 0 9.5 4.5t18.5 14 t11 18.5q9 43 0 74z" glyph-name="eight" horiz-adv-x="529" unicode="8"/>
<glyph d="M426 513v1q45 -72 45 -170q0 -151 -107.5 -334.5t-237.5 -280.5l-89 125q182 134 231 317q-30 -12 -63 -15q-43 -4 -91 18t-75 71q-9 17 -16.5 60.5t-7.5 66.5q0 92 49 151q33 40 84.5 64t106.5 23q114 -2 171 -97zM301 370q3 29 -13 62t-41 33q-21 0 -45 -24 q-19 -20 -21 -55q-3 -41 8.5 -63.5t30.5 -24.5q73 -4 81 72z" glyph-name="nine" horiz-adv-x="492" unicode="9"/>
<glyph d="M254 114q0 -48 -63 -99l-30 -1q-47 1 -93.5 28.5t-46.5 68.5q0 46 35.5 73.5t86.5 27.5q44 0 77.5 -29t33.5 -69zM237 410q0 -36 -27.5 -65t-72.5 -29q-46 0 -72 26t-26 64q0 37 28.5 64t72.5 27q39 0 68 -25t29 -62z" glyph-name="colon" horiz-adv-x="286" unicode=":"/>
<glyph d="M261 43q0 -80 -38 -137t-134 -108l-96 98q33 16 69.5 51.5t36.5 55.5v6q-89 5 -89 92q0 42 26 70.5t76 28.5q77 0 113 -44t36 -113zM237 421q0 -36 -27.5 -65.5t-72.5 -29.5q-46 0 -72 26.5t-26 64.5q0 37 28.5 64t72.5 27q39 0 68 -25t29 -62z" glyph-name="semicolon" horiz-adv-x="286" unicode=";"/>
<glyph d="M431 521l1 -53q-122 -130 -152 -164q-6 -7 -56 -57q125 -92 223 -136l-38 -156q-73 34 -141.5 76t-98.5 65t-90 70l-90 70l103 99h-1q47 46 141 148l114 123z" glyph-name="less" horiz-adv-x="461" unicode="&lt;"/>
<glyph d="M459 166l-46 -46q-32 -3 -186 -7q-154 -5 -210 -10l-14 143q57 5 225 10q146 4 225 14q0 -50 5 -92l-1 2zM459 345l-50 -39q-157 -6 -190 -7l-196 -1l1 145h109q64 0 80 1l245 8z" glyph-name="equal" horiz-adv-x="483" unicode="="/>
<glyph d="M445 303l4 -58l-54 -53q-49 -48 -79 -76t-91.5 -75t-130.5 -88l-55 152q98 58 206 161q-39 31 -60 50l-198 172l101 117l129 -113q112 -98 151 -129v1z" glyph-name="greater" horiz-adv-x="461" unicode="&gt;"/>
<glyph d="M449 563q0 -26 -9 -50t-28.5 -48.5t-34.5 -39.5t-44 -41q-52 -50 -62 -82q-4 -12 -4 -28q0 -5 10 -63l-163 -15q-17 62 -17 86q0 25 10 62q18 53 111 142q53 53 53 93q0 27 -15 46t-38 19q-9 0 -18.5 -2.5t-19.5 -8t-16.5 -9.5t-18 -12t-14.5 -10q-21 -18 -41 -39 l-83 109q37 47 102 78.5t123 31.5q95 0 156 -64t61 -155zM301 39q0 -39 -27 -69.5t-71 -30.5q-43 0 -68.5 27.5t-25.5 68.5q0 39 27.5 67.5t70.5 28.5q38 0 66 -26.5t28 -65.5z" glyph-name="question" horiz-adv-x="473" unicode="?"/>
<glyph d="M673 365q0 -53 -20 -110t-64 -100.5t-100 -43.5q-49 0 -83 36q-51 -46 -112 -46q-59 0 -93 46t-34 106q0 76 53.5 145.5t126.5 69.5q96 0 166 -79q-42 -62 -42 -137q0 -20 19 -20q29 0 46.5 50.5t17.5 93.5q0 73 -36 137.5t-97 64.5q-103 0 -168 -49.5t-90 -128.5 t-24 -189q1 -87 51.5 -152.5t101.5 -65.5q31 0 69 16.5t63 36.5l47 -110q-30 -26 -87.5 -43.5t-100.5 -17.5q-46 0 -91.5 22t-84 62t-63 106.5t-24.5 146.5q0 69 10.5 132.5t38.5 128t70.5 111.5t112 76.5t158.5 29.5q79 0 140.5 -50.5t92 -123.5t30.5 -151zM324 226 q32 0 66 135q-17 5 -29 5q-22 0 -42.5 -35.5t-20.5 -62.5q0 -17 7 -29.5t19 -12.5z" glyph-name="at" horiz-adv-x="714" unicode="@"/>
<glyph d="M616 -10q-16 -10 -42.5 -18t-45.5 -7q-19 0 -75 7q-30 108 -32 116q-5 17 -31 90q-51 -3 -161 -3q-4 -24 -19 -96t-19 -105q-95 -4 -159 24q4 29 18 97t17 87q-1 0 -2.5 0.5t-6 0.5t-11.5 0.5t-22.5 0.5t-35.5 -1q0 67 1 74q5 30 24 67h88q15 45 54.5 186.5t66.5 216.5 l157 11q10 -35 107.5 -341t128.5 -407zM261 325q59 0 89 3q-44 137 -45 140q-5 -22 -22 -69t-22 -74z" glyph-name="A" horiz-adv-x="623" unicode="A"/>
<glyph d="M509 223q0 -99 -95 -183q-96 -86 -313 -93q-11 152 -34 369q0 1 -0.5 3.5t-0.5 4.5q-15 150 -69 302l109 48q70 31 131 31q78 0 123 -42q47 -47 47 -107q0 -65 -47 -137q57 -21 92 -60q57 -63 57 -136zM326 224q2 49 -41 63q-3 3 -24.5 1.5t-38.5 -8.5q9 -93 21 -166 q3 3 25.5 17t26.5 17q31 33 31 76zM263 525q-8 41 -48 49q-25 3 -57 -13q5 -19 16 -75t18 -89q12 9 26 22t22 21l7 9q23 29 16 76z" glyph-name="B" horiz-adv-x="520" unicode="B"/>
<glyph d="M559 204l-2 -36q-12 -84 -40 -137v1q-50 -112 -217 -112q-56 0 -105.5 21t-79.5 57q-98 116 -98 355q0 61 17.5 123t51 118t92 91.5t132.5 35.5q101 0 167.5 -64.5t74.5 -159.5l5 -74q-70 -28 -184 -22q9 63 7 84q0 4 -0.5 10.5t-0.5 8.5q0 32 -19.5 51t-49.5 19 q-38 0 -65.5 -36t-38.5 -81.5t-11 -89.5q0 -77 5 -124q5 -76 32 -125q28 -52 72 -52q37 0 59 20q22 35 22 126z" glyph-name="C" horiz-adv-x="581" unicode="C"/>
<glyph d="M551 399q24 -163 -28 -261q-68 -121 -362 -191l-90 533q-6 -2 -52 -11q-15 35 -23 80q-6 27 -5 67q122 25 134 27q191 33 292 -25q45 -27 84 -87.5t50 -131.5zM381 389q-10 60 -56 91q-34 19 -95 21q38 -217 64 -349q4 2 20 8t26 10.5t21.5 16t15.5 25.5q24 66 4 177z " glyph-name="D" horiz-adv-x="588" unicode="D"/>
<glyph d="M488 74q-262 -54 -405 -117l-7 314l-61 -8l-1 145q4 0 16.5 1.5t26.5 3.5t16 2q-1 47 -3 144t-2 135q11 -1 59.5 0.5t53.5 1.5q30 0 286 16q12 -31 12 -78q0 -21 -8 -64q-35 -3 -59 -5t-32.5 -2.5t-11.5 -0.5q-103 -7 -127 -8q0 -81 1 -120q172 23 209 31q20 -69 10 -142 q-166 -30 -216 -36l3 -112q109 30 231 49q17 -63 9 -150z" glyph-name="E" horiz-adv-x="529" unicode="E"/>
<glyph d="M411 748l47 11q22 -67 27 -144l-84 -14q-90 -18 -200 -38q15 -103 24 -155q18 1 114 19q7 1 38.5 9.5t35.5 9.5q14 -24 25 -65q3 -23 -1 -80l-84 -17q-66 -12 -105 -17h-1q28 -182 46 -287q-55 -24 -75 -28q-28 -6 -94 -1l-42 281l-51 -10l-31 134l61 11l-42 295 q112 35 167 46q24 6 225 40z" glyph-name="F" horiz-adv-x="494" unicode="F"/>
<glyph d="M601 255h-85q-3 -104 -3 -178q0 -29 3 -119q-46 -28 -85 -44q-45 -17 -101 -17q-151 0 -249 135q-23 33 -40 89.5t-17 109.5q0 102 8.5 164t42.5 138q43 90 120.5 147t145.5 57q89 0 147.5 -40.5t67.5 -114.5l5 -68q-14 -4 -37.5 -11.5t-37.5 -11.5t-37.5 -9.5t-38 -5.5 t-37.5 1q11 51 -2 93q-5 12 -31 12q-25 0 -59.5 -29t-53.5 -86q-32 -91 -32 -218q2 -84 48.5 -139t99.5 -52h2v20q0 72 3 165q-1 0 -3 -0.5t-5 -0.5l-84 -7l2 149q53 7 150 11t186 16q8 -88 7 -100v-56z" glyph-name="G" horiz-adv-x="640" unicode="G"/>
<glyph d="M590 184l-96 -2q0 -44 -1 -136.5t-1 -132.5q-56 -14 -81 -14t-89 14v61l2 206h-97q1 -35 3 -104t2 -97q-67 -14 -89 -14t-80 7l-6 208h-66v142h65l-7 409q61 14 91 14q22 0 79 -11l7 -411h99q1 79 3 243.5t2 241.5q56 17 82 17q21 0 88 -14l-5 -488q19 0 53 0.5t42 0.5 v-140z" glyph-name="H" horiz-adv-x="612" unicode="H"/>
<glyph d="M74 -8l-4 142q-1 21 -3 77.5t-4 81.5q0 4 -0.5 13t-0.5 14q-6 115 -29 356q40 11 100.5 13t79.5 -3q4 -26 4.5 -77.5t2.5 -75.5q3 -31 6 -116.5t6 -130.5q1 -22 7 -137.5t9 -152.5z" glyph-name="I" horiz-adv-x="287" unicode="I"/>
<glyph d="M449 523l-135 -23q20 -62 89 -248q23 -61 26 -96q17 -121 -25 -214t-147 -109q-31 -5 -59 -4q-71 5 -114 35q-12 6 -34.5 63.5t-22.5 98.5q23 7 57.5 13.5t57.5 9.5l23 3q1 -21 8 -39.5t13 -26.5l6 -7q10 -5 26 -6.5t25 1.5q21 10 23.5 52t-7.5 100q-5 42 -33 123 l-39 109q-16 40 -37 103l-133 -32q-26 61 -34 140l78 18l357 75q35 -68 31 -139z" glyph-name="J" horiz-adv-x="470" unicode="J"/>
<glyph d="M536 559l-50 -41l-52 -45h1l-117 -96h1q-13 -10 -63 -41l1 1l-15 -10q19 -20 40.5 -43.5t33 -35.5t17.5 -18q68 -71 127 -119l79 -66q-12 -51 -26 -78q-18 -35 -53 -63l-111 99q-28 25 -74.5 79t-73.5 93q-1 -24 -1 -96t-2 -94q-1 -7 -0.5 -36.5t0.5 -33.5 q-93 -24 -170 15l4 56q0 55 2 167l3 168q0 45 6 142q4 88 4 254q88 21 170 3l-14 -229q120 86 173 134l54 49q75 -52 106 -115z" glyph-name="K" horiz-adv-x="555" unicode="K"/>
<glyph d="M412 87l50 -2q3 -26 -1 -79t-14 -87q-111 10 -118 10q-14 0 -53 2.5t-58 2.5q-97 4 -130 10l-60 11l6 69q25 205 32 316l16 347q52 14 80 14q34 0 91 -19l-2 -59l-13 -290q-2 -45 -23 -231q25 -2 87 -7.5t110 -7.5z" glyph-name="L" horiz-adv-x="483" unicode="L"/>
<glyph d="M807 -23q-59 -21 -99 -21q-34 0 -92 20v61q1 9 -2 28.5t-3 27.5q0 188 -25 352q-14 -27 -30.5 -66.5t-32.5 -86.5t-27.5 -81.5t-26 -80.5t-17.5 -56h-81l-158 263q-3 -67 -5.5 -176.5t-4.5 -163.5q-71 -9 -94 -9q-40 0 -97 21l1 59l48 617l105 76l222 -394q18 65 81 194 t104 195l145 -49l6 -54q7 -47 16 -100l11 -68q33 -225 53 -449z" glyph-name="M" horiz-adv-x="829" unicode="M"/>
<glyph d="M539 -96l-96 -24l-191 296q14 -137 33 -276q-79 -27 -170 -20l-8 63l1 -1q-25 190 -76 709l123 85q149 -320 193 -401q-1 47 -1 141q0 137 5 277q50 17 77 17q22 0 93 -19q-4 -160 -4 -262q0 -313 21 -585z" glyph-name="N" horiz-adv-x="569" unicode="N"/>
<glyph d="M715 359q0 -30 -6 -66v1q-25 -188 -134 -297q-95 -96 -230 -96q-101 0 -182 58q-75 57 -110 160t-35 207q0 287 262 386h-1q46 18 103 18q137 0 234 -105q99 -115 99 -266zM529 361q0 103 -42 162q-38 57 -86 57q-20 0 -42 -9l1 1q-77 -30 -119.5 -93.5t-42.5 -154.5 q0 -181 82 -246q35 -28 79 -28q48 0 93 53q52 62 73 200v-1q4 44 4 59z" glyph-name="O" horiz-adv-x="733" unicode="O"/>
<glyph d="M549 531q0 -43 -17.5 -97t-46.5 -99q-26 -40 -60.5 -65t-86.5 -50q-48 -22 -117 -23q2 -35 10.5 -134.5t11.5 -152.5q-117 -28 -180 -8q2 33 2 135q0 3 -17 518l-37 -10l-10 142q187 50 274 50q193 0 251 -114q23 -42 23 -92zM377 512q0 47 -28 65q-22 12 -93 14 q-16 0 -51 -6q1 -41 11 -253q61 0 98 34q21 17 41.5 61.5t21.5 84.5z" glyph-name="P" horiz-adv-x="578" unicode="P"/>
<glyph d="M676 308q0 -90 -36 -164.5t-99 -116.5q14 -23 38 -50.5t57 -63t52 -57.5q-43 -53 -121 -103q-107 127 -116 140q-38 50 -65 95q-16 -2 -45 -2q-160 0 -244.5 90.5t-84.5 223.5q-2 139 43 228q30 60 82.5 101.5t112.5 41.5q15 0 37 -5l18 47q150 -26 247 -113 q69 -62 95.5 -129.5t28.5 -162.5zM337 119q39 49 86 78l33 -43q54 33 54 154q0 72 -39 141t-103 91q-1 -9 -14 -45q-28 25 -66 25q-26 0 -44.5 -20.5t-35.5 -60.5l1 1q-26 -66 -26 -142q0 -16 2 -46q10 -54 55 -90t97 -43z" glyph-name="Q" horiz-adv-x="698" unicode="Q"/>
<glyph d="M569 -88l-81 -137q-114 42 -193 139q-34 41 -65 108t-43 113q-24 -121 -29 -217l-159 39q53 254 87 449q2 16 16 86t17 91l-76 -18q-1 17 -1 53l3 103q54 12 99 14l8 57l172 8l-16 -60q96 -8 149.5 -62.5t53.5 -137.5q0 -124 -95 -214v1q-52 -50 -125 -66 q42 -119 99 -196q63 -85 179 -153zM295 433q44 46 44 104t-56 61h-2q-18 -105 -37 -194v-2q34 16 51 32v-1z" glyph-name="R" horiz-adv-x="543" unicode="R"/>
<glyph d="M524 169q0 -81 -35 -153l1 1q-29 -62 -94 -111q-59 -44 -137 -44q-82 0 -148 47h1q-24 16 -54.5 74.5t-27.5 117.5q0 5 1 29t1 30q92 30 168 6l-2 -59q-4 -53 1 -71q6 -20 49 -26q16 -1 50 34q17 17 35 54q12 29 12 71q0 37 -7 46q-15 20 -82 31q-122 17 -169 76 q-29 37 -36 83q-2 19 -2 66v16q0 142 54 205q63 70 177 63q122 -11 161 -59l-1 1q41 -50 45 -109v-106l-167 2v98q-2 16 -3 17q-16 12 -42 12q-21 0 -42 -24q-16 -19 -16 -92q0 -32 9 -62q10 -35 54 -41q156 -23 204 -82q42 -53 42 -141z" glyph-name="S" horiz-adv-x="542" unicode="S"/>
<glyph d="M537 633l88 5q5 -21 5 -82.5t-5 -93.5l-95 11l-133 2q-1 -5 -3 -176q0 -9 11 -244l4 -52q-42 -28 -187 -20l-4 69l11 258l8 167q-63 5 -131 -1l-78 -14q-9 46 -6 92q0 30 15 79l63 -8q24 0 94 0.5t131 -0.5q36 0 89 2t88 4z" glyph-name="T" horiz-adv-x="642" unicode="T"/>
<glyph d="M484 258q0 -83 -43 -158q-20 -32 -73 -65l1 1q-52 -34 -93 -40l2 1q-50 -10 -118 22q-69 35 -92 84v-1q-3 7 -6 22.5t-6 41.5t-5 50t-5 64t-4.5 66t-4.5 73.5t-4 69.5l-7 122q89 21 179 11l6 -63q2 -8 2.5 -29.5t0.5 -57v-53.5q2 -125 3 -137q6 -114 10 -124q7 -9 11 -12 q17 -7 18 -7q4 0 28 12q11 6 12 9v-1q24 38 24 84q0 8 -1 39.5t-2.5 80.5t-2.5 89q-1 27 -2.5 78.5t-1.5 53.5l-1 61q64 15 90 15q23 0 80 -12l1 -60q4 -124 4 -330z" glyph-name="U" horiz-adv-x="508" unicode="U"/>
<glyph d="M566 647l27 -14l-22 -52q-8 -19 -26.5 -74.5t-25.5 -75.5l-87 -234q-87 -223 -102 -255q-6 0 -60.5 5.5t-64.5 3.5l-108 290q-4 13 -19.5 67t-42 147t-48.5 170q55 43 162 48l17 -61q15 -51 37 -142t35 -137q6 -29 28 -91l14 -41q12 31 35 101.5t31 94.5q37 110 67 233 q1 7 20 53q100 -7 133 -36z" glyph-name="V" horiz-adv-x="580" unicode="V"/>
<glyph d="M711 665l42 -19q-2 -10 -29 -128t-37 -192q-38 -273 -46 -320l-121 -56l-161 334l-153 -331l-98 16q-3 18 -11.5 57.5t-10.5 49.5q-1 9 -3 17.5t-3.5 16.5t-2.5 11q-23 111 -43 268.5t-35 239.5l-7 50q73 44 189 55l6 -69q0 -4 0.5 -16t0.5 -18q8 -216 22 -305 q15 41 62.5 147t55.5 127h73l130 -310q2 14 11 141q6 43 15.5 88.5t23 102t17.5 76.5q27 0 46 -4.5t41 -15.5z" glyph-name="W" horiz-adv-x="756" unicode="W"/>
<glyph d="M516 673l-35 -70q-6 -14 -25 -57.5t-28 -69.5q-9 -23 -35 -80.5t-42 -103.5q5 -12 18.5 -39.5t19.5 -40.5q5 -12 44.5 -94t64.5 -143q-46 -56 -155 -62l-23 56q-8 20 -38.5 86t-39.5 78q-17 -42 -61.5 -144t-59.5 -140q-108 12 -163 73l25 52q9 19 73.5 148.5t97.5 211.5 q-9 20 -24.5 43.5t-46 68t-59.5 90.5q-21 35 -33 51q29 35 59 62q8 6 104 52l44 -91q10 -18 28.5 -63t25.5 -57q4 10 16 42.5t17 46.5q8 23 30.5 77.5t27.5 73.5q96 -10 173 -57z" glyph-name="X" horiz-adv-x="510" unicode="X"/>
<glyph d="M487 689l7 -94q9 -96 9 -260q0 -58 -1 -81q-4 -109 -23 -182t-68 -121q-34 -33 -83 -52t-100 -19q-75 0 -149 44l-35 27l82 128l44 -34q23 -15 62 -15q36 0 59 23q26 26 37 133q-27 -5 -30 -5h-26h-29t-25 1.5t-28.5 4.5t-24.5 8t-27.5 13.5t-24.5 19.5q-77 73 -77 333 q0 39 7 102q37 4 92 -1t80 -18l-7 -56q-4 -20 -4 -46q0 -52 10.5 -117.5t28.5 -81.5q11 -12 23.5 -17t19.5 -5.5t31 -0.5h6l6 2v28q0 141 -15 330q101 32 173 9z" glyph-name="Y" horiz-adv-x="551" unicode="Y"/>
<glyph d="M523 139v-75q0 -46 -21 -89q-56 22 -105 22q-46 0 -83 -5q-69 -6 -261 -75l-65 79l128 234l33 63q64 118 107 186q25 41 43 80q-152 5 -178 5q-27 1 -60 -5t-46 -12q-5 27 -5 87q0 26 23 98l450 -37q17 -77 27 -91l-43 -79q-17 -27 -107 -189q-53 -95 -62 -109l-41 -81 l-12 -22q137 24 210 22q24 -1 44.5 -4t23.5 -3z" glyph-name="Z" horiz-adv-x="555" unicode="Z"/>
<glyph d="M344 -90l-53 2q-23 2 -80 2q-86 0 -164 -6l-12 451q1 22 -6 138q-2 70 -4 104l-6 227q78 3 120 8q81 10 176 5l-5 -152q-100 5 -122 5h-4q0 -1 0.5 -4t0.5 -4q14 -321 16 -400q2 -80 2 -124q0 -86 1 -110q86 5 138 7z" glyph-name="bracketleft" horiz-adv-x="359" unicode="["/>
<glyph d="M501 -14l-127 -39q-208 366 -250 469l-153 359q14 26 40.5 40.5t86.5 30.5q135 -276 177 -379q20 -51 76.5 -171t102.5 -215z" glyph-name="backslash" horiz-adv-x="485" unicode="\"/>
<glyph d="M353 875v-113q0 -85 -5 -180q-1 -20 -2 -69t-2 -68q-1 -22 -2 -49.5t-2 -44.5t-1 -25l-10 -475q-69 4 -120 10q-92 10 -179 2l2 151l140 -7v119q0 89 1 129q1 27 2.5 84.5t2.5 82.5q1 41 2 106.5t2.5 116.5t3.5 94h-14q-59 0 -110 -3l-6 153q93 3 176 -5q53 -6 121 -9z " glyph-name="bracketright" horiz-adv-x="385" unicode="]"/>
<glyph d="M494 473l-121 -89l-114 159l-110 -163l-123 85l164 244l129 7z" glyph-name="asciicircum" horiz-adv-x="518" unicode="^"/>
<glyph d="M589 -198l-51 -38q-233 -6 -281 -8l-299 10v146l294 -10l336 8z" glyph-name="underscore" horiz-adv-x="562" unicode="_"/>
<glyph d="M53 727q87 63 116 71q16 -20 68.5 -67.5t96.5 -84.5l44 -37l-60 -49q-223 133 -265 167z" glyph-name="grave" horiz-adv-x="432" unicode="`"/>
<glyph d="M499 3q-21 -33 -41 -45q-66 -41 -125 -36q-8 9 -14.5 30.5t-9.5 39.5l-3 17q-4 -2 -26 -11t-39 -14.5t-28 -5.5q-83 0 -137 41t-54 119q0 30 7 55q20 73 75 119q50 41 127 41q27 0 61 -8v26q0 11 -0.5 21.5t-1 15.5t-0.5 6q-5 30 -12.5 35.5t-22.5 -0.5q-50 -11 -74 -23 q-4 -2 -15.5 -9t-18.5 -11t-17.5 -12t-19.5 -16q-20 13 -37 77q-4 15 -4.5 40.5t3.5 36.5q86 60 185 60q47 0 83 -14q88 -27 111 -104q14 -42 14 -121q0 -11 -1 -40t-1 -43q-1 -44 -1 -87q0 -151 37 -180zM294 214l-8 8q-22 22 -52 22q-14 0 -25.5 -31t-11.5 -56 q0 -62 30 -62q21 0 41.5 10.5t26.5 31.5z" glyph-name="a" horiz-adv-x="514" unicode="a"/>
<glyph d="M556 185q-5 -50 -28 -101t-54 -79q-30 -27 -78 -40t-102 -8q-20 2 -42.5 11.5t-42 20t-24.5 12.5v-19v-31v-18q-73 -11 -108 -8q-17 2 -57 16q3 124 7 173l13 127q3 49 5 152q0 34 13 353q0 20 4 50q4 46 12 90q88 16 176 -8l-7 -58q-3 -18 -10 -86q-10 -103 -18 -275 q22 2 53 -1q125 -11 213 -88q83 -78 75 -185zM365 196q-1 15 0 21.5t-3.5 18t-6 15t-7 13.5t-7.5 13q-7 14 -32 34.5t-42 21.5q-30 1 -52 -9q0 -1 -0.5 -8.5t0.5 -7.5l-3 -84l-12 -97q38 -27 57 -27q45 -5 78 28q26 25 30 68z" glyph-name="b" horiz-adv-x="581" unicode="b"/>
<glyph d="M380 208l71 -109q-47 -51 -74 -64q-90 -43 -153 -43q-57 0 -112 35l2 -1q-95 60 -95 202q0 14 2 52q11 92 78 155q66 61 158 61q91 0 153 -53q3 -2 12 -11.5t18.5 -19.5t10.5 -11l-94 -107q-22 24 -42.5 39t-29.5 19l-9 4q-67 -15 -75 -104q-2 -41 -2 -45q2 -52 34 -60 q39 -10 72 7q19 10 75 54z" glyph-name="c" horiz-adv-x="476" unicode="c"/>
<glyph d="M541 -20l-30 -15q-38 -22 -137 -26q-10 13 -19 53.5t-10 70.5q-67 -52 -131 -54q-88 1 -147 65q-51 58 -53 142q-4 85 44 171q60 103 203 109q28 1 57 -13q-3 99 -15 166q-13 94 -14 117q-3 47 11 125q112 19 179 -23l-9 -54q-5 -29 -3 -72q2 -32 9 -95 q4 -43 10.5 -195.5t10.5 -202.5q15 -187 44 -269zM228 153q41 0 107 45q-1 10 -2.5 25.5t-1.5 20.5q-1 10 -3 44t-4 51q-28 15 -37 13q-45 -8 -70 -43q-33 -44 -31 -101q3 -55 42 -55z" glyph-name="d" horiz-adv-x="548" unicode="d"/>
<glyph d="M489 252l-283 -51q36 -90 156 -90q10 0 113 14q-12 -102 -66 -191l-71 13q-84 14 -135 41h1q-98 47 -135 116q-48 88 -48 193q0 63 22 120q35 84 92 126.5t131 37.5h-1q230 -14 224 -329zM191 327q19 4 56.5 10t54.5 9q-4 55 -9 69q-12 29 -38 29q-12 1 -28 -13.5 t-24 -37.5q-12 -36 -12 -66z" glyph-name="e" horiz-adv-x="515" unicode="e"/>
<glyph d="M444 601l-21 -15q-35 -26 -134 -29l-4 62q-14 70 -42 70q-14 -20 -14 -83q0 -4 18 -211q7 2 28.5 4t30.5 4l68 13q38 -60 29 -131q-50 -10 -86.5 -15.5t-57.5 -10.5l2 -29q2 -38 8 -122q8 -126 17 -177q10 -53 10 -57q-68 -34 -177 -24l-8 125l-7 86q-1 2 -2.5 27.5 t-4 72t-4.5 75.5q-56 -4 -71 -6q-16 31 -16 74q0 3 -1 15.5t-1.5 24t0.5 28.5l82 1l-8 120q-8 104 -8 123q0 222 156 222q33 0 69 -11q67 -23 104 -93q2 -5 45 -133z" glyph-name="f" horiz-adv-x="450" unicode="f"/>
<glyph d="M564 565l-26 11q-1 0 -23.5 1.5t-43 -3t-34.5 -20.5q43 -38 77.5 -87.5t34.5 -87.5q0 -106 -68 -169t-181 -63q-57 0 -83 10q-6 -6 -7.5 -17.5t0.5 -19.5l1 -8q0 -12 25 -29q22 11 75 11q91 0 153.5 -60t62.5 -162q0 -60 -14.5 -100.5t-55.5 -76.5q-26 -22 -73.5 -37.5 t-92.5 -15.5q-36 0 -77.5 15.5t-81 44.5t-65.5 78.5t-26 109.5q0 87 56 140q-49 55 -49 98q0 54 53 84q-36 31 -58.5 67t-22.5 65q0 70 34 122q81 121 242 121h28q45 117 183 117l53 -1q15 -44 15 -79q0 -17 -11 -59zM378 374v2q1 3 1 9q0 25 -18 46.5t-47 21.5 q-33 0 -60 -12q-15 -7 -34.5 -38t-19.5 -57q0 -12 16 -30q12 -15 19 -20.5t22 -9.5t42 -4q71 0 79 92zM348 -165q0 80 -30 107q-19 18 -51 18q-56 0 -56 -69t15 -87q12 -14 30.5 -21.5t29.5 -6.5q22 1 42 16t20 43z" glyph-name="g" horiz-adv-x="582" unicode="g"/>
<glyph d="M515 -65q-8 -1 -19.5 -3t-35 -4.5t-32.5 -1.5q-40 -4 -81 9l2 74q0 16 3 51.5t3.5 56.5t-2.5 64q-1 78 -25 156q-11 35 -27 35q-40 0 -74 -96l11 -109l18 -166l6 -61q-82 -26 -163 -19l-7 65l-13 121q-7 56 -25 239q-24 297 -70 552q71 20 104 20q29 0 80 -12l6 -56 q3 -26 7 -107.5t10 -131.5q4 -30 7 -91.5t5 -81.5q13 33 54.5 60t69.5 30q39 2 80 -28.5t64 -84.5q46 -110 46 -341q0 -45 -1 -68q-1 -8 -1.5 -35.5t0.5 -35.5z" glyph-name="h" horiz-adv-x="551" unicode="h"/>
<glyph d="M260 -33q-57 -12 -86 -14q-26 0 -83 10q-10 213 -40 486q87 27 169 16l7 -63l-1 2q1 -8 3.5 -32t6 -70t6.5 -80q13 -147 18 -255zM229 631q-2 -38 -31 -63t-69 -25q-37 0 -68.5 26t-31.5 62t31 61.5t69 25.5q40 0 68.5 -25t31.5 -62z" glyph-name="i" horiz-adv-x="295" unicode="i"/>
<glyph d="M319 -265q0 -33 -3 -48v1q-11 -70 -65 -120q-47 -39 -118 -39q-87 0 -150 58q-69 67 -69 161v32q1 7 4 29.5t3 26.5q99 25 170 -20l-6 -53q-1 -3 -1 -16q-2 -36 16 -54h-1q21 -22 34 -22q9 0 15 39q1 6 1 38v12q0 109 -26 300l-67 416q88 37 168 18l10 -55l56 -361 q29 -182 29 -343zM235 670q0 -36 -34 -68q-29 -29 -78 -29q-51 0 -80 29l2 -1q-35 32 -35 69q0 38 35 70l-2 -1q29 29 80 29q47 0 77 -28q35 -33 35 -70z" glyph-name="j" horiz-adv-x="333" unicode="j"/>
<glyph d="M605 -32l12 -129q-36 -10 -78.5 -10.5t-66.5 3.5l-25 4q-25 21 -44 42.5t-28.5 36.5t-34.5 54q-47 89 -90 213l-17 -21q3 -34 6 -62.5t4 -40t2.5 -40t2.5 -83.5q-74 -12 -164 -5q-3 91 -6 126q-10 123 -33 344q-40 394 -44 447q58 26 100 26q58 0 84 -5q-5 -53 -5 -100 q5 -69 17 -184.5t17 -169.5q1 -24 5 -63q27 29 72 85l111 142q72 -56 135 -136q-80 -60 -102 -84q-11 -11 -29 -27t-29.5 -28t-21.5 -28q36 -75 37 -78q8 -13 38 -72t55 -94q32 -46 60 -59.5t60 -3.5z" glyph-name="k" horiz-adv-x="550" unicode="k"/>
<glyph d="M226 -49q-17 -9 -79 -13.5t-96 4.5q3 103 4 155q3 48 4 94t0 119t-1 103q0 312 -4 398q2 27 -16 76q63 24 109 21q36 0 88 -8q-7 -83 -9 -147.5t-2.5 -137t-1.5 -116.5q0 -22 -1 -163.5t-2 -208.5q-1 -43 7 -176z" glyph-name="l" horiz-adv-x="287" unicode="l"/>
<glyph d="M789 -46l-174 -15q-9 63 -9 167q0 143 -8 223q-2 12 -6 22t-6.5 14t-2.5 5q-31 6 -54 -49t-25 -107q-7 -132 -4 -226l-180 7l9 65q15 101 15 215q0 27 -7 56t-17 33q-15 6 -50.5 -12.5t-52.5 -57.5q-3 -65 -0.5 -107.5t2.5 -78.5l3 -87l-185 9q1 -1 2 11t3.5 32.5t4.5 42 t4 45.5t4 38q7 59 -2.5 141.5t-35.5 123.5q120 60 159 71q24 -40 31 -81q53 64 111 74q47 8 87 -16q50 -31 70 -70q13 29 49 53.5t66 26.5q48 2 81.5 -11t60.5 -48q8 -11 14 -23.5t10 -29t6.5 -27t4 -32.5t2 -30t1 -34.5t0.5 -31.5q0 -111 6 -207q0 -4 13 -94z" glyph-name="m" horiz-adv-x="822" unicode="m"/>
<glyph d="M500 228q-11 -66 -11 -187q0 -19 7 -86l-196 36q3 22 5.5 47t3.5 32q0 1 6.5 56t12.5 86q13 74 13 121q0 45 -15 55q-13 -1 -52.5 -35.5t-62.5 -63.5q2 -62 0 -119q-7 -164 -1 -187l-174 -15q11 220 12 285q0 26 -4 92.5t-8 119.5l-4 53q90 22 164 14q4 -80 4 -92 q20 31 57.5 61t72.5 38q17 3 40.5 1t37.5 -8q104 -45 104 -188q0 -2 -12 -116z" glyph-name="n" horiz-adv-x="537" unicode="n"/>
<glyph d="M491 259q-2 -119 -44 -176q-68 -88 -176 -88q-117 0 -189 92q-59 73 -59 184q0 93 62 163t166 70q88 0 162.5 -65.5t77.5 -179.5zM332 271q-9 32 -37 60t-56 28q-26 0 -41 -23.5t-15 -45.5q0 -46 27 -92.5t62 -46.5q32 0 49.5 22.5t17.5 47.5q0 17 -7 50z" glyph-name="o" horiz-adv-x="516" unicode="o"/>
<glyph d="M513 270q-15 -108 -59 -169q-38 -55 -99 -73.5t-103 -4.5q-14 4 -37 26.5t-38 43.5q-2 -28 -26 -209q-14 -107 -25 -163l-4 -54q-98 5 -173 38q31 145 43 215q17 92 18 137q5 35 18 156.5t18 156.5q12 102 -2 189q93 36 138 29q48 -7 65 -16l-10 -73q19 18 50 34.5 t49 13.5q85 -14 126 -74q65 -98 51 -203zM347 304q1 8 1 36q-2 28 -8 44t-9.5 18t-5.5 2q-29 3 -64 -16q-24 -10 -42 -43l-1 -3l-3 -6l-3 -6l-14 -108q42 -46 60 -46q26 -2 55 33q25 33 34 95z" glyph-name="p" horiz-adv-x="535" unicode="p"/>
<glyph d="M773 -292l-15 -18q-84 -80 -175 -80q-95 0 -143 57q-55 69 -64 146q-2 12 -1 70.5t1 65.5q0 6 1.5 22t3 37t2.5 31q-64 -49 -113 -49q-48 0 -84.5 12.5t-55.5 28t-50 46.5q-56 55 -56 130q0 45 21 126q26 91 82.5 132.5t149.5 41.5q59 0 123 -61q3 12 4.5 30.5t1.5 34.5 v18q99 8 169 -22l-7 -59q-21 -156 -22 -244l-9 -273q2 -110 6 -124q3 -14 7.5 -23.5t11.5 -15.5t9.5 -8t11.5 -6q9 -3 13 -3q12 0 36.5 22t31.5 40q12 -4 23 -10t21 -15t16.5 -15.5t15.5 -18.5t12.5 -16t12 -16.5t8.5 -13.5zM368 255q0 49 -12 64q-16 21 -39 31 q-27 14 -44 12q-27 -4 -40 -20t-30 -59q-16 -40 -16 -68q0 -39 26.5 -60t61.5 -21q21 0 29 6q19 14 39 42q18 26 24 53q1 5 1 20z" glyph-name="q" horiz-adv-x="607" unicode="q"/>
<glyph d="M473 349q1 -40 2 -65q-104 -19 -153 -19l3 74q0 15 -4.5 25.5t-13.5 8.5q-20 -5 -34 -15.5t-43 -42.5l-24 -36q-3 -110 -2 -128q2 -78 8 -171l-184 3l1 80q10 188 7 313q-1 58 -8 137q17 8 59 16t75 12l33 4l6 -94q3 3 20.5 20t29.5 28t28.5 22t27.5 12q71 10 117 -41 q21 -21 35.5 -65t13.5 -78z" glyph-name="r" horiz-adv-x="502" unicode="r"/>
<glyph d="M201 389q2 -14 15.5 -21t49.5 -19t56 -20t51.5 -26t48.5 -38t30.5 -53t13.5 -73q0 -86 -63.5 -140.5t-162.5 -54.5q-68 0 -112.5 17.5t-66 53t-29 77.5t-5.5 102l169 -12q-10 -34 -2 -80q2 -11 13 -20t28 -9q26 0 44 21t18 51q0 17 -7 30.5t-24 23.5t-28 14.5t-36 13.5 q-33 12 -52 19t-45.5 22t-40.5 30t-25 38.5t-11 52.5q-1 62 36 104t87 57.5t107 15.5q35 0 56.5 -2.5t48 -13t41.5 -30t26.5 -56.5t13.5 -90l-122 -9q-2 37 -19 57.5t-36 21.5q-28 1 -48 -16t-18 -39z" glyph-name="s" horiz-adv-x="486" unicode="s"/>
<glyph d="M475 324l-99 -1q-62 0 -86 -1q0 -12 -1 -75t-1 -112q0 -67 30 -67q11 1 39 38t33 49q86 -13 130 -67q-31 -91 -107 -141t-152 -50q-21 0 -37 4h1q-115 24 -114 187q0 63 1 131v87q-16 -2 -79 -6v153q12 0 41 -1.5t35 -0.5q0 61 2 80q0 1 16 243q101 11 173 -18l-2 -61 l-3 -40q0 -18 -3 -58.5t-5 -73.5q-2 -23 -2 -55q15 1 101 7l81 5q14 -29 14 -84q0 -42 -6 -72z" glyph-name="t" horiz-adv-x="529" unicode="t"/>
<glyph d="M495 8l-28 -13q-29 -14 -132 -19q-1 10 -4 27t-5.5 31t-5 26.5t-2.5 13.5q-24 -26 -65 -42t-76 -16q-163 0 -163 199q0 49 8 137q5 45 13 147q97 0 167 -18q-13 -195 -13 -233q0 -67 26 -78q10 0 30 14t26 26q16 36 24 76q5 8 3 66t-2 62q70 12 82 12q29 0 87 -21 q-3 -39 -3 -63q0 -74 6 -130q17 -147 27 -204z" glyph-name="u" horiz-adv-x="514" unicode="u"/>
<glyph d="M537 464l-40 -88q-57 -124 -71 -160l-96 -237q-57 -16 -91 -20l-68 127q-21 40 -47 97q-3 6 -17.5 37.5t-22.5 50.5l-44 99l-46 103q65 61 164 74q32 -100 79 -228q19 -55 32 -81q56 141 88 209l-1 -1l44 100z" glyph-name="v" horiz-adv-x="545" unicode="v"/>
<glyph d="M741 484l-9 -46q-26 -112 -56 -209q-14 -48 -87 -253l-90 -26l-59 123q-17 36 -70 119l-2 2q-23 -33 -78 -130t-61 -107l-81 5l-60 257q-20 77 -83 215q12 8 35.5 23t27.5 18q13 7 103 33q40 -182 60 -268l1 2l120 225q49 6 68 4l107 -239q7 22 14 53.5t17 79t17 78.5 q7 34 7 72q76 9 159 -31z" glyph-name="w" horiz-adv-x="741" unicode="w"/>
<glyph d="M529 476l-37 -52q-9 -12 -53 -69q-9 -12 -33 -42.5t-45 -59.5l35 -40v1q10 -11 60 -75.5t61 -77.5l40 -48q-31 -71 -133 -98l-40 50q-22 23 -130 149q-49 -50 -107 -150q-81 35 -137 88q32 55 141 189q-15 17 -66.5 80.5t-78.5 93.5q33 45 49 59q10 10 80 42l53 -73h1 q18 -23 59 -67l149 199q94 -57 132 -99z" glyph-name="x" horiz-adv-x="537" unicode="x"/>
<glyph d="M567 464l-25 -49h1q-100 -214 -235 -550q-9 -25 -20.5 -51.5t-20.5 -49.5q-7 -20 -31 -81.5t-36 -93.5q-109 8 -151 64q3 5 7 15t8.5 20t5.5 13v-1q26 60 66 176l78 193q-84 60 -138 157q-29 52 -46 122t-18 130q49 29 174 6q15 -122 50 -192q21 -43 42 -72 q63 145 142 311q101 -12 147 -67z" glyph-name="y" horiz-adv-x="574" unicode="y"/>
<glyph d="M535 169l4 -68q0 -44 -15 -89l-76 2q-16 2 -36 0h-41t-57.5 -2t-61.5 -7.5t-82 -19t-90 -34.5l-23 64l26 75q72 151 144 257l4 6q-9 -4 -31.5 -10.5t-48 -13.5t-32.5 -9q-15 -5 -30.5 -12.5t-23.5 -11.5l-8 -5l-41 156q46 6 98 25q27 8 53.5 15.5t63.5 17.5t64 17 q13 3 51.5 13t70 18.5t49.5 15.5q6 -11 44 -66q-13 -37 -34 -67l2 2q-6 -9 -28.5 -45t-35.5 -54q-71 -98 -88 -129q-6 -10 -7.5 -15.5t-4 -15t-7.5 -23.5q65 14 113 14q104 0 115 -1z" glyph-name="z" horiz-adv-x="559" unicode="z"/>
<glyph d="M375 -127l-17 -12q-60 -48 -135 -48q-57 0 -105 25q-69 36 -71 135q0 72 72 188q13 22 20 47.5t0 42.5q-16 6 -57 6.5t-54 -2.5l-15 121q35 6 48 15q46 32 46 78q-5 7 -25 22q-26 19 -37 29t-23 29.5t-12 40.5q0 28 21 69q80 136 188 213l87 -108q-25 -23 -85 -89 t-61 -82q7 -5 24 -16q38 -22 60 -43t26 -50q6 -58 -40 -117q28 -17 52 -40.5t24 -42.5q0 -28 -15 -79q-2 -3 -20 -40.5t-24.5 -52t-20 -45t-21 -53.5t-11.5 -43q2 -30 15 -43q20 -3 60.5 14.5t56.5 43.5z" glyph-name="braceleft" horiz-adv-x="355" unicode="{"/>
<glyph d="M215 872l2 -19q-9 -286 -13 -397q0 -63 3 -193.5t7 -235.5t5 -107l-162 -6q-2 5 -8 226.5t-6 319.5l4 389q36 26 88 28.5t80 -5.5z" glyph-name="bar" horiz-adv-x="275" unicode="|"/>
<glyph d="M347 440l-17 -97q-50 -12 -59 -22q6 -40 19 -75q10 -31 19 -71q11 -55 11 -122q0 -124 -51 -189l1 1q-37 -51 -116 -51q-76 0 -144 74l120 87q10 -11 17 -22q12 5 15 31q2 14 -0.5 40.5t-2.5 34.5q0 59 -25 155q-13 41 -22 87q-11 60 33 98q-21 24 -21 55q0 27 27 91 q13 37 15 43q2 8 2 25q0 66 -17 91q-6 6 -15 6q-6 0 -84 -9l-17 136q84 9 153 -8t101 -62q41 -63 41 -141q0 -55 -25 -108q-7 -10 -7 -13q-22 -38 -21 -41q0 -2 32 -12.5t38 -11.5z" glyph-name="braceright" horiz-adv-x="346" unicode="}"/>
<glyph d="M588 549l-6 -33q-23 -80 -76 -126t-124 -46q-67 0 -125 43q-42 29 -46 29h-2q-2 -1 -5.5 -2t-7.5 -3t-8 -5t-7 -7q-12 -12 -27.5 -38t-19.5 -44l-117 38q10 58 18 79q27 74 65 105.5t99 31.5q70 0 142 -57q26 -21 35 -26q23 3 36 105q121 0 176 -44z" glyph-name="asciitilde" horiz-adv-x="616" unicode="~"/>
<glyph glyph-name="uni00A0" horiz-adv-x="282" unicode=" "/>
<glyph d="M168 500q16 -1 34 -5t28 -7l10 -3q-1 -5 -1.5 -14.5t-3.5 -37t-5.5 -52.5t-5 -57t-4.5 -55.5t-3 -42t-1 -23.5l-16 -305l-187 19q2 20 23 248q10 58 20 145l24 190q50 7 88 0zM105 682q0 36 24 64t64 28t63 -25t23 -63q0 -36 -25 -62t-64 -26q-34 0 -59.5 24.5 t-25.5 59.5z" glyph-name="exclamdown" horiz-adv-x="302" unicode="¡"/>
<glyph d="M420 778l-18 -50q-18 -60 -37 -131q59 -26 94 -55l-62 -100q-22 23 -63 39q-4 -15 -19 -78l-28 -112q20 3 30 9q46 23 72 40l51 -108q-46 -44 -87 -63.5t-103 -22.5q-32 -123 -38 -173l-74 19l38 161q-73 22 -108 95t-23 168q9 85 72 145q59 57 144 57q14 0 21 -1 q32 148 34 175q22 7 53 2.5t51 -16.5zM184 390q-10 -52 28 -84l27 115l12 56q-55 -30 -67 -87z" glyph-name="cent" horiz-adv-x="476" unicode="¢"/>
<glyph d="M622 122l-8 -39q-18 -51 -65.5 -89.5t-101.5 -38.5q-34 0 -62.5 19t-44.5 41.5t-35 41.5t-34 19h-5q-13 -44 -48 -81t-85 -37q-39 0 -75 25.5t-36 67.5q0 38 28 75t64 43q1 7 1 19q0 11 1 35.5t1 42.5t-2 30q-12 -2 -46.5 -3.5t-39.5 -2.5l15 96l64 7v15q0 49 2 81 q4 81 67.5 155t142.5 74q50 0 96 -31.5t61 -62.5l-69 -123q-10 24 -35 44.5t-49 20.5q-55 -10 -55 -152v-9l121 6l-13 -97l-100 -6v-23q0 -57 -2 -73l14 -1q30 -2 59.5 -17t45 -30t34 -36t20.5 -23q2 0 14 10t27.5 28t21.5 33z" glyph-name="sterling" horiz-adv-x="652" unicode="£"/>
<glyph d="M786 615l-110 -111q-74 71 -133 66q-32 -2 -64 -13q-88 -33 -123 -99q43 2 100 8t92 10l36 5l-27 -120q-146 -8 -238 -11q-1 -4 -2.5 -11.5t-4 -28t0.5 -33.5q175 6 256 15q-24 -70 -31 -99q-20 -2 -97 -5t-103 -5q7 -19 25 -39.5t36 -30.5q37 -22 110 -17q58 5 147 98 l124 -112q-48 -56 -124 -94.5t-147 -43.5q-53 -3 -114 9.5t-103 34.5q-55 29 -95 79.5t-55 108.5q-95 -5 -140 -9l25 96q69 6 102 7q-2 12 0 31t5 31l2 13l-107 2l41 107l15 -2.5t32.5 -3.5t31.5 2q27 78 94 142.5t164 102.5q44 17 107 22q72 4 137 -20t135 -82z" glyph-name="currency" horiz-adv-x="797" unicode="¤"/>
<glyph d="M597 156l-49 -7q-36 -4 -108 -7q8 -158 11 -193l7 -76l-165 -8l-2 74q-1 41 -9 198q-93 -3 -184 -10l-13 99q94 9 189 10l1 84l-169 -1l-16 102q84 -1 127 0q-37 42 -116.5 140t-114.5 138q48 95 126 126l51 -54q81 -129 166 -229q33 76 119 258q99 -27 141 -75l-27 -54 q-27 -52 -95 -216l123 7l-21 -110q-80 -24 -138 -26v-85q79 5 152 13q0 -13 7.5 -48t6.5 -50z" glyph-name="yen" horiz-adv-x="629" unicode="¥"/>
<glyph d="M184 490l-146 -1q-2 124 0 169q1 9 1 35l-5 180l147 1q5 -175 7 -217v3q1 -8 1 -37zM37 391l153 3l-7 -198l-4 -208l-139 3q-3 154 -5 205q-1 16 0.5 61t1.5 61v73z" glyph-name="brokenbar" horiz-adv-x="241" unicode="¦"/>
<glyph d="M446 361q0 -101 -77 -147q35 -38 35 -97q0 -50 -13.5 -83t-40 -49t-54 -21.5t-64.5 -5.5q-137 0 -171 167l119 46q-21 6 -32 9t-29.5 10.5t-28.5 15.5t-23 21.5t-19.5 29.5t-11 39.5t-4.5 52.5q0 96 74 144q-51 34 -51 95q-1 50 16 84t47 50.5t60.5 23t67.5 6.5 q25 0 39 -1.5t33.5 -7t31 -18t23 -34t17 -55.5t7.5 -81l-110 -7q31 -10 46.5 -16t41 -21.5t38 -33t23 -47.5t10.5 -69zM307 368q0 18 -12 25l-5 4q-16 2 -62 2q-25 0 -41 -15.5t-16 -41.5q0 -17 7 -21l7 -5q27 -5 64 -5q26 0 42 15t16 42zM210 163q-4 2 -16 4 q5 -27 17.5 -51.5t21.5 -24.5q10 0 15 1t10 7t5 18q-2 27 -53 46zM204 600q2 -22 54 -42q-6 60 -13 60h-7q-34 0 -34 -18z" glyph-name="section" horiz-adv-x="473" unicode="§"/>
<glyph d="M403 693v-1q13 -20 13 -44q0 -76 -68 -81q-38 0 -56.5 21.5t-18.5 50.5q0 72 72 78q42 0 58 -24zM205 642q-2 -34 -19.5 -58t-55.5 -24q-32 0 -52 22.5t-20 48.5q0 31 21.5 52.5t56.5 21.5q32 0 50.5 -17.5t18.5 -45.5z" glyph-name="dieresis" horiz-adv-x="465" unicode="¨"/>
<glyph d="M566 362q0 -60 -19.5 -119.5t-54.5 -109t-91 -80t-122 -30.5q-78 0 -136.5 52t-85 123t-26.5 143q0 68 30.5 135.5t90.5 114.5t134 47q114 0 197 -82.5t83 -193.5zM481 341q0 80 -54.5 143t-134.5 63q-83 0 -128.5 -68t-45.5 -155q0 -77 51 -142t125 -65q82 0 134.5 70 t52.5 154zM385 301l43 -58q-29 -29 -69 -55t-71 -26q-60 0 -88 47t-28 108q0 39 11.5 79.5t41.5 74t71 33.5q56 0 124 -70l-63 -63q-41 43 -57 43q-19 0 -30 -39t-11 -69q0 -53 32 -53q31 0 94 48z" glyph-name="copyright" horiz-adv-x="590" unicode="©"/>
<glyph d="M418 302l-29 -4q-38 -21 -148 -21v17q-36 -12 -77 -12q-150 0 -150 182q0 89 56 152.5t145 63.5h11v22l166 35v-207q0 -55 7.5 -125.5t18.5 -102.5zM185 434q25 0 54 18v22q-1 18 -1 60l-10 5q-22 0 -39 -28t-17 -58q0 -19 13 -19z" glyph-name="ordfeminine" horiz-adv-x="422" unicode="ª"/>
<glyph d="M375 111l-70 -118l-269 214l-5 79l255 247l73 -117l-157 -161zM659 124l-69 -117l-269 214l-5 78l255 247l73 -116l-158 -161z" glyph-name="guillemotleft" horiz-adv-x="686" unicode="«"/>
<glyph d="M362 125l-122 -55q0 11 -4.5 24t-10.5 24t-12.5 20.5t-11 15t-5.5 5.5q-14 -8 -14 -66q0 -47 29 -87t66 -40q62 0 92 50.5t30 130.5q0 46 -10.5 78t-32.5 50t-41 26.5t-51 17.5q-33 9 -47 13t-44 15t-44 20t-35 26.5t-31 37t-17.5 47.5t-7.5 62q0 43 16 92.5t44 93 t71.5 72.5t92.5 29q38 0 66.5 -6t61.5 -23t60.5 -54.5t48.5 -94.5l-174 -80q-20 109 -63 109q-18 0 -29.5 -48t-11.5 -86q0 -25 12.5 -40.5t26 -20.5t39.5 -12q31 -8 47 -14q30 -10 46 -16t43.5 -19.5t43 -26.5t35.5 -36t30.5 -49.5t18 -65t7.5 -84.5q0 -96 -29 -171 t-97 -124t-168 -49q-112 0 -189.5 93.5t-75.5 206.5q1 70 47.5 129.5t123.5 63.5q43 2 76.5 -13.5t54 -44.5t32.5 -60t17 -66z" glyph-name="logicalnot" horiz-adv-x="579" unicode="¬"/>
<glyph d="M552 362q0 -75 -30.5 -149t-95 -127.5t-146.5 -53.5q-53 0 -96 19.5t-72 51.5t-49 74.5t-28.5 88t-8.5 92.5q0 115 89.5 203t208.5 88q67 0 121 -47t80.5 -111.5t26.5 -128.5zM463 331q0 40 -8 78t-24.5 72t-48 55t-73.5 21q-87 0 -147 -64t-60 -149q0 -82 43 -149 t119 -67q79 0 137 58l-115 62l14 -61l-86 -19l-65 281q66 39 108 50q32 9 57 9q67 0 90 -51q5 -14 5 -34q0 -55 -70 -105l110 -56q14 36 14 69zM320 420h1q-9 25 -81 0q13 -44 15 -52q24 6 45.5 19.5t19.5 32.5z" glyph-name="registered" horiz-adv-x="594" unicode="®"/>
<glyph d="M383 594l-357 -9l-2 97l358 9z" glyph-name="macron" horiz-adv-x="422" unicode="¯"/>
<glyph d="M386 506q0 -60 -43.5 -108t-114.5 -48q-25 0 -47 3t-48.5 12.5t-45.5 24.5t-32 43t-13 65q0 36 6.5 67.5t23 64.5t51.5 52t85 19q90 0 134 -52.5t44 -142.5zM250 505q0 40 -10 59.5t-35 19.5q-31 0 -31 -88q0 -15 14.5 -26t33.5 -10q11 1 19.5 17t8.5 28z" glyph-name="degree" horiz-adv-x="425" unicode="°"/>
<glyph d="M486 31l-48 -6q-31 -3 -185 -7q-146 -5 -205 -10l-14 148q42 3 156 9q-19 93 -17 149h-136l-6 124q96 23 144 25l5 182l136 -22q2 -11 5.5 -29t9 -60.5t5.5 -70.5l143 -10l-6 -126q-9 -2 -24.5 -4.5t-52.5 -6t-62 -2.5q-6 -143 -6 -146q72 2 146 12q0 -50 5 -95l-1 3z " glyph-name="plusminus" horiz-adv-x="528" unicode="±"/>
<glyph d="M447 411l-16 -144q-58 0 -65 1q-56 -1 -207 -39l-24 -6l-49 -10l-57 95q89 80 108 101q41 39 76 96q28 45 25 89q0 5 -4 7.5t-10 3t-11.5 0.5t-10.5 -1h-5q-10 0 -28.5 -11.5t-26.5 -22.5l-47 -57q-12 11 -33.5 34.5t-36.5 40.5l-15 18q9 26 42.5 55.5t69.5 49.5 q36 19 119 17q62 -5 108 -47.5t44 -95.5q-2 -29 -19.5 -66.5t-38.5 -62.5l-56 -70q4 0 14 2q101 20 154 23z" glyph-name="twosuperior" horiz-adv-x="466" unicode="²"/>
<glyph d="M380 359v-1q-20 -52 -72.5 -80t-118.5 -28q-86 0 -141 44h2q-8 6 -9 8q-2 3 -13 16l53 99l21 -18q32 -32 78 -32q25 0 47 9.5t28 27.5q6 22 6 29q0 15 -9.5 23t-18.5 9t-26 1q-31 0 -53 -7l-35 66q65 45 85 70q-24 1 -84.5 -3.5t-72.5 -4.5v119h148l134 -8l37 -74 q-11 -10 -49 -32t-47 -32q19 0 46.5 -9t34.5 -16q14 -14 22 -24t15.5 -31t7.5 -48q0 -28 -16 -73z" glyph-name="threesuperior" horiz-adv-x="426" unicode="³"/>
<glyph d="M412 728q-18 -14 -85.5 -55t-126.5 -75l-58 -34l-61 48q175 141 213 185q14 -3 43.5 -20.5t52.5 -32.5z" glyph-name="acute" horiz-adv-x="498" unicode="´"/>
<glyph d="M563 148l-29 -135q-40 -10 -86.5 7t-81.5 51q-3 -4 -24 -20q-56 -39 -116 -39q-8 0 -20 2q-1 -26 -1 -75q0 -36 2 -96v1q1 -26 1 -114q-90 -8 -166 18q12 60 12 93q0 6 -0.5 19t-0.5 21q-1 15 -1 56q0 46 1 75q0 26 3 107v63q0 136 4 184l2 15q4 34 4 50q0 21 -12 72 q44 25 63.5 31t40.5 4h-1q3 -1 7 -1q15 0 77 -8q-13 -65 -14 -115q0 -1 -0.5 -7.5t-0.5 -9.5q-9 -99 -9 -149q0 -54 5 -66l6 -14q10 0 33 15q64 52 62 341q57 15 78 15q32 0 83 -20q-8 -240 -7 -312q2 -32 18 -44t68 -15z" glyph-name="mu" horiz-adv-x="572" unicode="µ"/>
<glyph d="M564 -62q-19 -2 -43 0t-45 5l-20 3q8 120 11 283t3 266l-1 103q-59 7 -70 6q-1 -21 -2 -56.5t-3 -130t-2.5 -172.5t0.5 -157t5 -110q-84 -3 -100 3q4 63 4.5 142t-1.5 127l-2 47q-11 -1 -32 -1q-27 0 -44 4q-83 19 -134 73q-62 65 -66 131q-2 45 15 80q40 90 198 122 q30 7 56 7q48 3 159 3q18 0 65 -0.5t48 -0.5q-8 -230 -8 -412q0 -192 9 -365zM270 400q8 0 26 2l-6 188q-4 0 -10 -1t-8 -1q-31 -2 -64.5 -27.5t-33.5 -52.5q1 -48 28 -78t68 -30z" glyph-name="paragraph" horiz-adv-x="588" unicode="¶"/>
<glyph d="M231 325q0 -39 -27 -69.5t-71 -30.5t-69 27.5t-25 68.5q0 39 27.5 67.5t70.5 28.5q38 0 66 -26.5t28 -65.5z" glyph-name="periodcentered" horiz-adv-x="265" unicode="·"/>
<glyph d="M82 -178l34 -9q14 -3 29 -4t31.5 5.5t16.5 22.5q0 13 -5.5 19.5t-9.5 7t-11 0.5q-14 2 -58 -5q-1 1 -3 11t-6.5 26.5t-9.5 30.5l79 126l92 -2l-70 -103q56 2 90 -31.5t34 -80.5q0 -55 -43 -85.5t-98 -30.5q-45 0 -103 13q3 22 5.5 44t3.5 32t2 13z" glyph-name="cedilla" horiz-adv-x="338" unicode="¸"/>
<glyph d="M203 268l-155 -8q1 10 2 27t2 33.5t1 20.5q0 7 1.5 88.5t0.5 102.5q2 26 -2.5 94t-2.5 82q135 4 151 1q2 -60 2 -91q0 -33 -2 -65q-1 -47 -1 -256z" glyph-name="onesuperior" horiz-adv-x="266" unicode="¹"/>
<glyph d="M432 484q0 -77 -50 -147q-55 -76 -148 -76q-96 0 -159 77q-59 73 -59 158q0 82 66 146q67 61 154 52q63 -6 118 -53q41 -35 59.5 -71.5t18.5 -85.5zM271 485q0 10 -3 19l1 -1q-5 18 -23.5 31t-36.5 13q-5 0 -11 -9q-11 -14 -11 -28q0 -52 22 -73q22 -20 33 -20q3 0 13 5 q16 14 16 63z" glyph-name="ordmasculine" horiz-adv-x="450" unicode="º"/>
<glyph d="M314 427l71 118l269 -214l4 -79l-254 -247l-73 117l156 161zM30 414l70 117l269 -214l4 -78l-254 -247l-73 116l157 161z" glyph-name="guillemotright" horiz-adv-x="686" unicode="»"/>
<glyph d="M864 138l-10 -87q-62 2 -82 0l7 -119l-113 -4l-1 10q-1 9 -2 25.5t-1 29.5v15q0 6 -2 12t-2 22q-34 -1 -107 -1q-5 0 -38.5 0.5t-58.5 0.5q-5 13 -8 18t-9.5 12t-14.5 19l22 76q1 1 5.5 22.5t9.5 46t7 30.5q12 63 15 102h4q4 1 9.5 1.5t14 0.5h18.5t20.5 -1t23 -3 t23.5 -5q-22 -158 -38 -217l1 1q-1 -3 -1.5 -8.5t-1.5 -9.5t-2 -5h25q58 0 82 1q0 6 -4 73.5t-4 104.5q0 39 5 76q55 -1 111 -12q-3 -58 -3 -88q0 -56 3 -143zM673 651l-20 -27l-207 -266q-29 -36 -100 -141.5t-128 -193.5l-57 -88l-86 69q206 320 285 417q31 40 87.5 115.5 t96.5 131.5l41 55q6 -4 18.5 -13t17 -12t13.5 -9.5t12.5 -9.5t9.5 -8.5t9.5 -10t7.5 -9.5zM203 268l-155 -8q1 10 2 27t2 33.5t1 20.5q0 7 1.5 88.5t0.5 102.5q2 26 -2.5 94t-2.5 82q135 4 151 1q2 -60 2 -91q0 -33 -2 -65q-1 -47 -1 -256z" glyph-name="onequarter" horiz-adv-x="879" unicode="¼"/>
<glyph d="M879 115l-14 -133q-56 0 -63 1q-55 -1 -196 -36l-23 -6q-3 0 -46 -9l-54 88q84 74 102 93q38 36 72 89q11 16 18 40.5t5 41.5q0 4 -3.5 7t-9 3.5t-10.5 0t-10 -0.5l-5 -1q-10 0 -27.5 -10.5t-24.5 -20.5l-45 -53q-12 10 -31.5 31.5t-33.5 37.5l-14 17q8 24 39.5 51.5 t65.5 45.5t113 16q59 -5 102.5 -44t41.5 -88q-1 -27 -18 -62t-37 -57l-53 -65q6 0 12 2q96 18 147 21zM673 651l-20 -27l-207 -266q-29 -36 -100 -141.5t-128 -193.5l-57 -88l-86 69q206 320 285 417q31 40 87.5 115.5t96.5 131.5l41 55q6 -4 18.5 -13t17 -12t13.5 -9.5 t12.5 -9.5t9.5 -8.5t9.5 -10t7.5 -9.5zM203 268l-155 -8q1 10 2 27t2 33.5t1 20.5q0 7 1.5 88.5t0.5 102.5q2 26 -2.5 94t-2.5 82q135 4 151 1q2 -60 2 -91q0 -33 -2 -65q-1 -47 -1 -256z" glyph-name="onehalf" horiz-adv-x="899" unicode="½"/>
<glyph d="M380 359v-1q-20 -52 -72.5 -80t-118.5 -28q-86 0 -141 44h2q-8 6 -9 8q-2 3 -13 16l53 99l21 -18q32 -32 78 -32q25 0 47 9.5t28 27.5q6 22 6 29q0 15 -9.5 23t-18.5 9t-26 1q-31 0 -53 -7l-35 66q65 45 85 70q-24 1 -84.5 -3.5t-72.5 -4.5v119h148l134 -8l37 -74 q-11 -10 -49 -32t-47 -32q19 0 46.5 -9t34.5 -16q14 -14 22 -24t15.5 -31t7.5 -48q0 -28 -16 -73zM963 128l5 -87q-62 2 -82 0l7 -119l-113 -4l-1 10q-1 9 -2 25.5t-1 29.5v15q0 6 -2 12t-2 22q-34 -1 -107 -1q-5 0 -38.5 0.5t-58.5 0.5q-5 13 -8 18t-9.5 12t-14.5 19l22 76 q1 1 5.5 22.5t9.5 46t7 30.5q12 63 15 102h4q4 1 9.5 1.5t14 0.5h18.5t20.5 -1t23 -3t23.5 -5q-22 -158 -38 -217l1 1q-1 -3 -1.5 -8.5t-1.5 -9.5t-2 -5h25q58 0 82 1q0 6 -4 73.5t-4 104.5q0 39 5 76q55 -1 111 -12q-3 -58 -3 -88q0 -56 3 -143zM787 641l-20 -27l-207 -266 q-29 -36 -100 -141.5t-128 -193.5l-57 -88l-86 69q206 320 285 417q31 40 87.5 115.5t96.5 131.5l41 55q6 -4 18.5 -13t17 -12t13.5 -9.5t12.5 -9.5t9.5 -8.5t9.5 -10t7.5 -9.5z" glyph-name="threequarters" horiz-adv-x="994" unicode="¾"/>
<glyph d="M446 37l-27 -25q-93 -60 -185 -60q-95 0 -156.5 64.5t-61.5 153.5q0 27 8 51t29 49.5t32.5 36.5t42.5 40q56 50 67 86q3 9 3 26q0 13 -13 64l167 16q16 -66 16 -88q0 -30 -9 -60q-3 -9 -7 -17.5t-9.5 -18t-10 -16.5t-13 -16.5t-13 -15t-15 -16l-14 -14t-15 -14.5 t-14.5 -14q-54 -54 -54 -93q0 -28 10.5 -44.5t29.5 -16.5q44 0 72 20q4 3 32.5 28.5t32.5 28.5zM342 695q0 -29 -43 -62.5t-75 -33.5q-43 0 -69.5 21.5t-26.5 58.5q0 39 29.5 72t76.5 33q37 0 72.5 -27.5t35.5 -61.5z" glyph-name="questiondown" horiz-adv-x="459" unicode="¿"/>
<glyph d="M629 -10q-16 -10 -42.5 -18t-45.5 -7q-19 0 -75 7q-30 108 -32 116q-5 17 -31 90q-51 -3 -161 -3q-4 -24 -19 -96t-19 -105q-95 -4 -159 24q4 29 18 97t17 87q-1 0 -2.5 0.5t-6 0.5t-11.5 0.5t-22.5 0.5t-35.5 -1q0 67 1 74q5 30 24 67h44h20.5h10h13.5q15 45 54.5 186.5 t66.5 216.5l157 11q10 -35 107.5 -341t128.5 -407zM274 325q59 0 89 3q-44 137 -45 140q-5 -22 -22 -69t-22 -74zM127 943q87 63 116 71q16 -20 68.5 -67t96.5 -85l44 -37l-60 -49q-223 133 -265 167z" glyph-name="Agrave" unicode="À"/>
<glyph d="M629 -10q-16 -10 -42.5 -18t-45.5 -7q-19 0 -75 7q-30 108 -32 116q-5 17 -31 90q-51 -3 -161 -3q-4 -24 -19 -96t-19 -105q-95 -4 -159 24q4 29 18 97t17 87q-1 0 -2.5 0.5t-6 0.5t-11.5 0.5t-22.5 0.5t-35.5 -1q0 67 1 74q5 30 24 67h44h20.5h10h13.5q15 45 54.5 186.5 t66.5 216.5l157 11q10 -35 107.5 -341t128.5 -407zM274 325q59 0 89 3q-44 137 -45 140q-5 -22 -22 -69t-22 -74zM511 936q-18 -14 -85.5 -55t-125.5 -75l-59 -34l-61 48q175 141 213 185q14 -3 43.5 -20.5t51.5 -32.5z" glyph-name="Aacute" unicode="Á"/>
<glyph d="M629 -10q-16 -10 -42.5 -18t-45.5 -7q-19 0 -75 7q-30 108 -32 116q-5 17 -31 90q-51 -3 -161 -3q-4 -24 -19 -96t-19 -105q-95 -4 -159 24q4 29 18 97t17 87q-1 0 -2.5 0.5t-6 0.5t-11.5 0.5t-22.5 0.5t-35.5 -1q0 67 1 74q5 30 24 67h44h20.5h10h13.5q15 45 54.5 186.5 t66.5 216.5l157 11q10 -35 107.5 -341t128.5 -407zM274 325q59 0 89 3q-44 137 -45 140q-5 -22 -22 -69t-22 -74zM494 839l-75 -68l-106 117l-87 -111l-96 64l143 163h72z" glyph-name="Acircumflex" unicode="Â"/>
<glyph d="M629 -10q-16 -10 -42.5 -18t-45.5 -7q-19 0 -75 7q-30 108 -32 116q-5 17 -31 90q-51 -3 -161 -3q-4 -24 -19 -96t-19 -105q-95 -4 -159 24q4 29 18 97t17 87q-1 0 -2.5 0.5t-6 0.5t-11.5 0.5t-22.5 0.5t-35.5 -1q0 67 1 74q5 30 24 67h44h20.5h10h13.5q15 45 54.5 186.5 t66.5 216.5l157 11q10 -35 107.5 -341t128.5 -407zM471 954l-7 -35q-5 -35 -52 -93q-29 -33 -76 -33q-26 0 -54 13q-15 9 -31 29q-18 24 -24 24q-15 -3 -24.5 -21t-18.5 -48q-1 -3 -1 -5l-63 21q17 68 41.5 102.5t76.5 34.5q30 0 65 -37q15 -17 29 -19q18 -2 30 12l6 6 q6 6 8.5 9t7.5 10.5t7 13.5t4 14.5t1 17.5zM274 325q59 0 89 3q-44 137 -45 140q-5 -22 -22 -69t-22 -74z" glyph-name="Atilde" unicode="Ã"/>
<glyph d="M629 -10q-16 -10 -42.5 -18t-45.5 -7q-19 0 -75 7q-30 108 -32 116q-5 17 -31 90q-51 -3 -161 -3q-4 -24 -19 -96t-19 -105q-95 -4 -159 24q4 29 18 97t17 87q-1 0 -2.5 0.5t-6 0.5t-11.5 0.5t-22.5 0.5t-35.5 -1q0 67 1 74q5 30 24 67h44h20.5h10h13.5q15 45 54.5 186.5 t66.5 216.5l157 11q10 -35 107.5 -341t128.5 -407zM274 325q59 0 89 3q-44 137 -45 140q-5 -22 -22 -69t-22 -74zM492 944v-1q13 -20 13 -44q0 -76 -68 -81q-38 0 -56.5 21.5t-18.5 50.5q0 72 72 78q42 0 58 -24zM294 893q-2 -34 -19.5 -58t-55.5 -24q-32 0 -52 22.5 t-20 48.5q0 31 21.5 52.5t56.5 21.5q32 0 50.5 -17.5t18.5 -45.5z" glyph-name="Adieresis" unicode="Ä"/>
<glyph d="M629 -10q-16 -10 -42.5 -18t-45.5 -7q-19 0 -75 7q-30 108 -32 116q-5 17 -31 90q-51 -3 -161 -3q-4 -24 -19 -96t-19 -105q-95 -4 -159 24q4 29 18 97t17 87q-1 0 -2.5 0.5t-6 0.5t-11.5 0.5t-22.5 0.5t-35.5 -1q0 67 1 74q5 30 24 67h44h20.5h10h13.5q15 45 54.5 186.5 t66.5 216.5l157 11q10 -35 107.5 -341t128.5 -407zM274 325q59 0 89 3q-44 137 -45 140q-5 -22 -22 -69t-22 -74zM442 911q0 -46 -35 -83.5t-93 -37.5q-25 0 -48 4.5t-47.5 15.5t-39.5 35t-15 59q0 29 5 53.5t18 51t41 42t69 15.5q73 0 109 -42t36 -113zM345 911 q0 37 -10.5 55.5t-37.5 18.5q-37 0 -37 -81q0 -33 54 -33q16 0 23.5 13t7.5 27z" glyph-name="Aring" horiz-adv-x="652" unicode="Å"/>
<glyph d="M796 29l-41 -13q-146 -26 -243 -65q-15 -12 -52 -17.5t-69 -4.5q-5 41 -7 95q-4 96 -5 114q-1 11 -2 17.5t-1 17.5q-61 -11 -146 4q-32 -83 -65 -195q-99 19 -148 51l19 56q13 43 40 121q-52 9 -65 13q3 85 39 137q38 -7 77 -19q26 64 103 213.5t103 203.5l160 22l7 -96 q135 6 241 14q16 -47 16 -77q0 -20 -7 -66l-72 -2q-106 -7 -165 -10l3 -48q1 -7 3.5 -56t4.5 -63q115 15 196 49q41 -54 33 -140q-36 -16 -100 -30.5t-117 -20.5q9 -99 10 -119q85 23 221 46q31 -72 29 -132zM272 315q65 -10 98 3q-2 22 -2 79t-4 111q-2 -4 -42 -85.5 t-50 -107.5z" glyph-name="AE" horiz-adv-x="818" unicode="Æ"/>
<glyph d="M554 443l-172 -7q4 31 4 78q0 31 -21.5 50t-54.5 19q-63 0 -98.5 -65t-35.5 -134q0 -164 43 -236q31 -50 85 -50q53 0 69 19q20 24 22 119l150 -8q0 -3 -0.5 -16.5t-0.5 -17.5v-21t-0.5 -23t-1.5 -22t-3.5 -24.5t-6.5 -22t-10 -23t-15 -20t-20 -20t-26.5 -16t-33.5 -14.5 q12 -24 12 -76q0 -27 -11 -62q-16 -52 -51.5 -85.5t-89.5 -33.5q-19 0 -42 5h1q-41 13 -62 40t-10 65v-1q10 35 47.5 59t78.5 13h2q31 36 2 67q-143 -10 -214 61q-18 19 -31.5 41t-21.5 50.5t-13.5 46.5t-7 54t-2.5 47t-0.5 51t0.5 42q0 57 17 114.5t50.5 109.5t93 85 t134.5 33q107 0 172.5 -59t67.5 -150z" glyph-name="Ccedilla" horiz-adv-x="576" unicode="Ç"/>
<glyph d="M474 74q-262 -54 -405 -117l-7 314l-61 -8l-1 145q4 0 16.5 1.5t26.5 3.5t16 2q-1 47 -3 144t-2 135q11 -1 59.5 0.5t53.5 1.5q30 0 286 16q12 -31 12 -78q0 -21 -8 -64q-35 -3 -59 -5t-32.5 -2.5t-11.5 -0.5q-103 -7 -127 -8q0 -81 1 -120q172 23 209 31q20 -69 10 -142 q-166 -30 -216 -36l3 -112q109 30 231 49q17 -63 9 -150zM72 885q87 63 116 71q16 -20 68.5 -67.5t96.5 -84.5l44 -37l-60 -49q-223 133 -265 167z" glyph-name="Egrave" horiz-adv-x="502" unicode="È"/>
<glyph d="M474 74q-262 -54 -405 -117l-7 314l-61 -8l-1 145q4 0 16.5 1.5t26.5 3.5t16 2q-1 47 -3 144t-2 135q11 -1 59.5 0.5t53.5 1.5q30 0 286 16q12 -31 12 -78q0 -21 -8 -64q-35 -3 -59 -5t-32.5 -2.5t-11.5 -0.5q-103 -7 -127 -8q0 -81 1 -120q172 23 209 31q20 -69 10 -142 q-166 -30 -216 -36l3 -112q109 30 231 49q17 -63 9 -150zM438 882q-18 -14 -85.5 -55t-126.5 -75l-58 -34l-61 48q175 141 213 185q14 -3 43.5 -20.5t52.5 -32.5z" glyph-name="Eacute" horiz-adv-x="511" unicode="É"/>
<glyph d="M474 74q-262 -54 -405 -117l-7 314l-61 -8l-1 145q4 0 16.5 1.5t26.5 3.5t16 2q-1 47 -3 144t-2 135q11 -1 59.5 0.5t53.5 1.5q30 0 286 16q12 -31 12 -78q0 -21 -8 -64q-35 -3 -59 -5t-32.5 -2.5t-11.5 -0.5q-103 -7 -127 -8q0 -81 1 -120q172 23 209 31q20 -69 10 -142 q-166 -30 -216 -36l3 -112q109 30 231 49q17 -63 9 -150zM435 801l-75 -68l-106 117l-87 -111l-96 64l143 163h72z" glyph-name="Ecircumflex" horiz-adv-x="498" unicode="Ê"/>
<glyph d="M474 74q-262 -54 -405 -117l-7 314l-61 -8l-1 145q4 0 16.5 1.5t26.5 3.5t16 2q-1 47 -3 144t-2 135q11 -1 59.5 0.5t53.5 1.5q30 0 286 16q12 -31 12 -78q0 -21 -8 -64q-35 -3 -59 -5t-32.5 -2.5t-11.5 -0.5q-103 -7 -127 -8q0 -81 1 -120q172 23 209 31q20 -69 10 -142 q-166 -30 -216 -36l3 -112q109 30 231 49q17 -63 9 -150zM416 864v-1q13 -20 13 -44q0 -76 -68 -81q-38 0 -56.5 21.5t-18.5 50.5q0 72 72 78q42 0 58 -24zM218 813q-2 -34 -19.5 -58t-55.5 -24q-32 0 -52 22.5t-20 48.5q0 31 21.5 52.5t56.5 21.5q32 0 50.5 -17.5 t18.5 -45.5z" glyph-name="Edieresis" horiz-adv-x="504" unicode="Ë"/>
<glyph d="M82 -8l-4 142q-1 21 -3 77.5t-4 81.5q0 4 -0.5 13t-0.5 14q-6 115 -29 356q40 11 100.5 13t79.5 -3q4 -26 4.5 -77.5t2.5 -75.5q3 -31 6 -116.5t6 -130.5q1 -22 7 -137.5t9 -152.5zM-111 906q87 63 116 71q16 -20 68.5 -67t96.5 -84l44 -38l-60 -49q-223 133 -265 167z " glyph-name="Igrave" horiz-adv-x="291" unicode="Ì"/>
<glyph d="M65 -8l-4 142q-1 21 -3 77.5t-4 81.5q0 4 -0.5 13t-0.5 14q-6 115 -29 356q40 11 100.5 13t79.5 -3q4 -26 4.5 -77.5t2.5 -75.5q3 -31 6 -116.5t6 -130.5q1 -22 7 -137.5t9 -152.5zM345 920q-18 -14 -85.5 -55t-125.5 -75l-59 -34l-61 48q175 141 213 185 q14 -3 43.5 -20.5t51.5 -32.5z" glyph-name="Iacute" horiz-adv-x="278" unicode="Í"/>
<glyph d="M82 -8l-4 142q-1 21 -3 77.5t-4 81.5q0 4 -0.5 13t-0.5 14q-6 115 -29 356q40 11 100.5 13t79.5 -3q4 -26 4.5 -77.5t2.5 -75.5q3 -31 6 -116.5t6 -130.5q1 -22 7 -137.5t9 -152.5zM306 798l-75 -68l-106 117l-87 -111l-96 64l143 163h72z" glyph-name="Icircumflex" horiz-adv-x="282" unicode="Î"/>
<glyph d="M86 -8l-4 142q-1 21 -3 77.5t-4 81.5q0 4 -0.5 13t-0.5 14q-6 115 -29 356q40 11 100.5 13t79.5 -3q4 -26 4.5 -77.5t2.5 -75.5q3 -31 6 -116.5t6 -130.5q1 -22 7 -137.5t9 -152.5zM284 876v-1q13 -20 13 -44q0 -76 -68 -81q-38 0 -56.5 21.5t-18.5 50.5q0 72 72 78 q42 0 58 -24zM86 825q-2 -34 -19.5 -58t-55.5 -24q-32 0 -52 22.5t-20 48.5q0 31 21.5 52.5t56.5 21.5q32 0 50.5 -17.5t18.5 -45.5z" glyph-name="Idieresis" horiz-adv-x="304" unicode="Ï"/>
<glyph d="M573 354q-1 -78 -20 -145t-50 -107q-81 -105 -407 -126l-2 295q-32 -1 -67 -6l-7 106q40 5 74 5l-1 142l-53 -3q-10 38 -10 84q0 37 5 67q125 3 138 2q92 0 175 -19.5t128 -55.5q39 -35 68.5 -101.5t28.5 -137.5zM404 372q0 34 -13.5 61t-27.5 40q-26 20 -110 38l3 -132 q56 4 66 5l6 -109h-26q-12 -2 -45 -2q0 -32 2 -118q3 1 32.5 5t51 13t29.5 26q35 64 32 173z" glyph-name="Eth" horiz-adv-x="600" unicode="Ð"/>
<glyph d="M507 -96l-96 -24l-191 296q14 -137 33 -276q-79 -27 -170 -20l-8 63l1 -1q-25 190 -76 709l123 85q149 -320 193 -401q-1 47 -1 141q0 137 5 277q50 17 77 17q22 0 93 -19q-4 -160 -4 -262q0 -313 21 -585zM449 963l-7 -35q-5 -35 -52 -93q-29 -33 -76 -33q-26 0 -54 13 q-15 9 -31 29q-18 24 -24 24q-15 -3 -24.5 -21t-18.5 -48q-1 -3 -1 -5l-63 21q17 68 41.5 102.5t76.5 34.5q30 0 65 -37q15 -17 29 -19q18 -2 30 12l6 6q6 6 8.5 9t7.5 10.5t7 13.5t4 14.5t1 17.5z" glyph-name="Ntilde" horiz-adv-x="542" unicode="Ñ"/>
<glyph d="M715 362q0 -30 -6 -66v1q-25 -188 -134 -297q-95 -96 -230 -96q-101 0 -182 58q-75 57 -110 160t-35 207q0 287 262 386h-1q46 18 103 18q137 0 234 -105q99 -115 99 -266zM529 364q0 104 -42 162q-38 57 -86 57q-20 0 -42 -9l1 1q-77 -30 -119.5 -93.5t-42.5 -154.5 q0 -181 82 -246q35 -28 79 -28q48 0 93 53q52 62 73 200v-1q4 44 4 59zM202 919q87 63 116 71q16 -20 68.5 -67t96.5 -85l44 -37l-60 -49q-223 133 -265 167z" glyph-name="Ograve" horiz-adv-x="748" unicode="Ò"/>
<glyph d="M715 359q0 -30 -6 -66v1q-25 -188 -134 -297q-95 -96 -230 -96q-101 0 -182 58q-75 57 -110 160t-35 207q0 287 262 386h-1q46 18 103 18q137 0 234 -105q99 -115 99 -266zM529 361q0 103 -42 162q-38 57 -86 57q-20 0 -42 -9l1 1q-77 -30 -119.5 -93.5t-42.5 -154.5 q0 -181 82 -246q35 -28 79 -28q48 0 93 53q52 62 73 200q4 42 4 58zM616 919q-18 -14 -85.5 -55t-126.5 -75l-58 -34l-61 48q175 141 213 185q14 -3 43.5 -20.5t52.5 -33.5z" glyph-name="Oacute" horiz-adv-x="748" unicode="Ó"/>
<glyph d="M713 359q0 -30 -6 -66v1q-25 -188 -134 -297q-95 -96 -230 -96q-101 0 -182 58q-75 57 -110 160t-35 207q0 287 262 386h-1q46 18 103 18q137 0 234 -105q99 -115 99 -266zM527 361q0 103 -42 162q-38 57 -86 57q-20 0 -42 -9l1 1q-77 -30 -119.5 -93.5t-42.5 -154.5 q0 -181 82 -246q35 -28 79 -28q48 0 93 53q52 62 73 200v-1q4 44 4 59zM553 819l-75 -68l-106 117l-87 -111l-96 64l143 163h72z" glyph-name="Ocircumflex" horiz-adv-x="746" unicode="Ô"/>
<glyph d="M713 359q0 -30 -6 -66v1q-25 -188 -134 -297q-95 -96 -230 -96q-101 0 -182 58q-75 57 -110 160t-35 207q0 287 262 386h-1q46 18 103 18q137 0 234 -105q99 -115 99 -266zM527 361q0 103 -42 162q-38 57 -86 57q-20 0 -42 -9l1 1q-77 -30 -119.5 -93.5t-42.5 -154.5 q0 -181 82 -246q35 -28 79 -28q48 0 93 53q52 62 73 200v-1q4 44 4 59zM535 943l-7 -35q-5 -35 -52 -93q-29 -33 -76 -33q-26 0 -54 13q-15 9 -31 29q-18 24 -24 24q-15 -3 -24.5 -21t-18.5 -48q-1 -3 -1 -5l-63 21q17 68 41.5 102.5t76.5 34.5q30 0 65 -37q15 -17 29 -19 q18 -2 30 12l6 6q6 6 8.5 9t7.5 10.5t7 13.5t4 14.5t1 17.5z" glyph-name="Otilde" horiz-adv-x="740" unicode="Õ"/>
<glyph d="M699 359q0 -30 -6 -66v1q-25 -188 -134 -297q-95 -96 -230 -96q-101 0 -182 58q-75 57 -110 160t-35 207q0 287 262 386h-1q46 18 103 18q137 0 234 -105q99 -115 99 -266zM513 361q0 103 -42 162q-38 57 -86 57q-20 0 -42 -9l1 1q-77 -30 -119.5 -93.5t-42.5 -154.5 q0 -181 82 -246q35 -28 79 -28q48 0 93 53q52 62 73 200v-1q4 44 4 59zM536 920v-1q13 -20 13 -44q0 -76 -68 -81q-38 0 -56.5 21.5t-18.5 50.5q0 72 72 78q42 0 58 -24zM338 869q-2 -34 -19.5 -58t-55.5 -24q-32 0 -52 22.5t-20 48.5q0 31 21.5 52.5t56.5 21.5 q32 0 50.5 -17.5t18.5 -45.5z" glyph-name="Odieresis" horiz-adv-x="732" unicode="Ö"/>
<glyph d="M485 187l-105 -70q-88 52 -130 92l-116 -123l-105 105l114 118l-130 119l100 75q91 -56 128 -87l120 126l83 -101q-52 -80 -93 -125z" glyph-name="multiply" horiz-adv-x="490" unicode="×"/>
<glyph d="M657 378q0 -29 -4 -58q-25 -167 -127 -264q-89 -83 -213 -83q-43 0 -74 8l-54 -110l-115 63q29 62 44 114q-55 54 -79 135t-24 166q0 257 246 344q42 15 91 15q34 0 66 -6l63 142q76 -23 127 -62q-24 -73 -59 -147q14 -14 20 -19q92 -100 92 -238zM500 380q0 65 -22 112 q-52 -110 -69 -157l-110 -232q10 -2 29 -2q53 0 95 49q54 55 72 179q5 30 5 51zM274 383q7 17 20 47t32.5 73.5t32.5 73.5l1 2q-15 -1 -37 -9h1q-77 -27 -119 -84t-42 -138q0 -89 25 -150q73 152 86 185z" glyph-name="Oslash" horiz-adv-x="693" unicode="Ø"/>
<glyph d="M481 260q0 -83 -43 -158q-20 -32 -73 -65l1 1q-52 -34 -93 -40l2 1q-50 -10 -118 22q-69 35 -92 84v-1q-3 7 -6 22.5t-6 41.5t-5 50t-5 64t-4.5 66t-4.5 73.5t-4 69.5l-7 122q89 21 179 11l6 -63q2 -8 2.5 -29.5t0.5 -57v-53.5q2 -125 3 -137q6 -114 10 -124q7 -9 11 -12 q17 -7 18 -7q4 0 28 12q11 6 12 9v-1q24 38 24 84q0 8 -1 39.5t-2.5 80.5t-2.5 89q-1 27 -2.5 78.5t-1.5 53.5l-1 61q64 15 90 15q23 0 80 -12l1 -60q4 -124 4 -330zM80 867q87 63 116 71q16 -20 68.5 -67.5t96.5 -84.5l44 -37l-60 -49q-223 133 -265 167z" glyph-name="Ugrave" horiz-adv-x="516" unicode="Ù"/>
<glyph d="M477 260q0 -83 -43 -158q-20 -32 -73 -65l1 1q-52 -34 -93 -40l2 1q-50 -10 -118 22q-69 35 -92 84v-1q-3 7 -6 22.5t-6 41.5t-5 50t-5 64t-4.5 66t-4.5 73.5t-4 69.5l-7 122q89 21 179 11l6 -63q2 -8 2.5 -29.5t0.5 -57v-53.5q2 -125 3 -137q6 -114 10 -124q7 -9 11 -12 q17 -7 18 -7q4 0 28 12q11 6 12 9v-1q24 38 24 84q0 8 -1 39.5t-2.5 80.5t-2.5 89q-1 27 -2.5 78.5t-1.5 53.5l-1 61q64 15 90 15q23 0 80 -12l1 -60q4 -124 4 -330zM429 845q-18 -14 -85.5 -55t-125.5 -75l-59 -34l-61 48q175 141 213 185q14 -3 43.5 -20.5t51.5 -33.5z " glyph-name="Uacute" horiz-adv-x="512" unicode="Ú"/>
<glyph d="M477 256q0 -83 -43 -158q-20 -32 -73 -65l1 1q-52 -34 -93 -40l2 1q-50 -10 -118 22q-69 35 -92 84v-1q-3 7 -6 22.5t-6 41.5t-5 50t-5 64t-4.5 66t-4.5 73.5t-4 69.5l-7 122q89 21 179 11l6 -63q2 -8 2.5 -29.5t0.5 -57v-53.5q2 -125 3 -137q6 -114 10 -124q7 -9 11 -12 q17 -7 18 -7q4 0 28 12q11 6 12 9v-1q24 38 24 84q0 8 -1 39.5t-2.5 80.5t-2.5 89q-1 27 -2.5 78.5t-1.5 53.5l-1 61q64 15 90 15q23 0 80 -12l1 -60q4 -124 4 -330zM429 757l-75 -68l-106 117l-87 -111l-96 64l143 163h72z" glyph-name="Ucircumflex" horiz-adv-x="512" unicode="Û"/>
<glyph d="M471 240q0 -83 -43 -158q-20 -32 -73 -65l1 1q-52 -34 -93 -40l2 1q-50 -10 -118 22q-69 35 -92 84v-1q-3 7 -6 22.5t-6 41.5t-5 50t-5 64t-4.5 66t-4.5 73.5t-4 69.5l-7 122q89 21 179 11l6 -63q2 -8 2.5 -29.5t0.5 -57v-53.5q2 -124 3 -137q6 -114 10 -124q7 -9 11 -12 q17 -7 18 -7q4 0 28 12q11 6 12 9v-1q24 38 24 84q0 8 -1 39.5t-2.5 80.5t-2.5 89q-1 27 -2.5 78.5t-1.5 53.5l-1 61q64 15 90 15q23 0 80 -12l1 -60q4 -124 4 -330zM426 819v-1q13 -20 13 -44q0 -76 -68 -81q-38 0 -56.5 21.5t-18.5 50.5q0 72 72 78q42 0 58 -24zM228 768 q-2 -34 -19.5 -58t-55.5 -24q-32 0 -52 22.5t-20 48.5q0 31 21.5 52.5t56.5 21.5q32 0 50.5 -17.5t18.5 -45.5z" glyph-name="Udieresis" horiz-adv-x="493" unicode="Ü"/>
<glyph d="M468 685l7 -94q9 -96 9 -260q0 -58 -1 -81q-4 -109 -23 -182t-68 -121q-34 -33 -83 -52t-100 -19q-75 0 -149 44l-35 27l82 128l44 -34q23 -15 62 -15q36 0 59 23q26 26 37 133q-27 -5 -30 -5h-26h-29t-25 1.5t-28.5 4.5t-24.5 8t-27.5 13.5t-24.5 19.5q-77 73 -77 333 q0 39 7 102q37 4 92 -1t80 -18l-7 -56q-4 -20 -4 -46q0 -52 10.5 -117.5t28.5 -81.5q11 -12 23.5 -17t19.5 -5.5t31 -0.5h6l6 2v28q0 141 -15 330q101 32 173 9zM469 878q-18 -14 -85.5 -55t-125.5 -75l-59 -34l-61 48q175 141 213 185q14 -3 43.5 -20.5t51.5 -32.5z" glyph-name="Yacute" horiz-adv-x="514" unicode="Ý"/>
<glyph d="M581 464q0 -82 -68 -168q-64 -81 -160 -118l1 1q-53 -21 -133 -23q2 -21 9 -86.5t10 -95.5q-121 -24 -190 -9l-2 57q4 13 4 68q0 46 -22 643q19 6 60.5 11.5t73.5 7.5l31 2q0 -60 1 -105q7 0 10 1q29 4 77 4q211 0 272 -104q26 -40 26 -86zM402 451q0 44 -33 60 q-39 19 -109 19q-19 2 -56 -5q2 -65 11 -245q69 0 116 33q43 31 66 100q5 15 5 38z" glyph-name="Thorn" horiz-adv-x="609" unicode="Þ"/>
<glyph d="M541 222q-3 -95 -61.5 -164.5t-144.5 -87.5q-47 -9 -86 5l-9 -65q-13 -59 -64 -115q-40 -43 -106 -59q-84 -14 -158 53l77 121q17 -16 35.5 -24.5t28 -9.5t14.5 0q21 5 23 79q4 81 0 142q-3 33 -10.5 97t-10.5 99q-9 117 -5 224q6 103 58.5 155t126.5 66q71 14 142 -23 t87 -102q8 -39 -12 -94.5t-52 -86.5q128 -68 127 -210zM239 191q-1 -8 2.5 -33t5.5 -32q20 -18 45 -19.5t28 2.5q25 5 45.5 39t16.5 66q-9 110 -154 94l4 -48q1 -18 7 -69zM221 529q1 -7 1 -18.5t0.5 -28t0.5 -28.5q5 2 22.5 3.5t27.5 5.5q22 9 37 43.5t12 58.5 q-4 25 -25 40t-43 11q-29 -8 -33 -87z" glyph-name="germandbls" horiz-adv-x="572" unicode="ß"/>
<glyph d="M491 5q-21 -33 -41 -45q-66 -41 -125 -36q-8 9 -14.5 30.5t-9.5 39.5l-3 17q-4 -2 -26 -11t-39 -14.5t-28 -5.5q-83 0 -137 41t-54 119q0 30 7 55q20 73 75 119q50 41 127 41q27 0 61 -8v26q0 11 -0.5 21.5t-1 15.5t-0.5 6q-5 30 -12.5 35.5t-22.5 -0.5q-50 -11 -74 -23 q-4 -2 -15.5 -9t-18.5 -11t-17.5 -12t-19.5 -16q-20 13 -37 77q-4 15 -4.5 40.5t3.5 36.5q86 60 185 60q47 0 83 -14q88 -27 111 -104q14 -42 14 -121q0 -11 -1 -40t-1 -43q-1 -44 -1 -87q0 -151 37 -180zM286 216l-8 8q-22 22 -52 22q-14 0 -25.5 -31t-11.5 -56 q0 -62 30 -62q21 0 41.5 10.5t26.5 31.5zM49 802q87 63 116 71q16 -20 68.5 -67.5t96.5 -84.5l44 -37l-60 -49q-223 133 -265 167z" glyph-name="agrave" horiz-adv-x="493" unicode="à"/>
<glyph d="M477 3q-21 -33 -41 -45q-66 -41 -125 -36q-8 9 -14.5 30.5t-9.5 39.5l-3 17q-4 -2 -26 -11t-39 -14.5t-28 -5.5q-83 0 -137 41t-54 119q0 30 7 55q20 73 75 119q50 41 127 41q27 0 61 -8v26q0 11 -0.5 21.5t-1 15.5t-0.5 6q-5 30 -12.5 35.5t-22.5 -0.5q-50 -11 -74 -23 q-4 -2 -15.5 -9t-18.5 -11t-17.5 -12t-19.5 -16q-20 13 -37 77q-4 15 -4.5 40.5t3.5 36.5q85 60 185 60q47 0 83 -14q88 -27 111 -104q14 -42 14 -121q0 -11 -1 -40t-1 -43q-1 -44 -1 -87q0 -151 37 -180zM272 214l-8 8q-22 22 -52 22q-14 0 -25.5 -31t-11.5 -56 q0 -62 30 -62q21 0 41.5 10.5t26.5 31.5zM413 802q-18 -14 -85.5 -55t-125.5 -75l-59 -34l-61 48q175 141 213 185q14 -3 43.5 -20.5t51.5 -32.5z" glyph-name="aacute" horiz-adv-x="491" unicode="á"/>
<glyph d="M500 3q-21 -33 -41 -45q-66 -41 -125 -36q-8 9 -15 30.5t-9 39.5l-3 17q-4 -2 -26 -11t-39 -14.5t-28 -5.5q-83 0 -137 41t-54 119q0 30 7 55q20 73 75 119q50 41 127 41q27 0 61 -8v26q0 11 -0.5 21.5t-1 15.5t-0.5 6q-5 30 -12.5 35.5t-22.5 -0.5q-50 -11 -74 -23 q-4 -2 -15.5 -9t-18.5 -11t-17.5 -12t-19.5 -16q-20 13 -37 77q-4 15 -4.5 40.5t3.5 36.5q85 60 185 60q47 0 83 -14q88 -27 111 -104q14 -42 14 -121q0 -11 -1 -40t-1 -43q-1 -44 -1 -87q0 -151 37 -180zM295 214l-8 8q-22 22 -52 22q-14 0 -25.5 -31t-11.5 -56 q0 -62 30 -62q21 0 41.5 10.5t26.5 31.5zM439 698l-75 -68l-106 117l-87 -111l-96 64l143 163h72z" glyph-name="acircumflex" horiz-adv-x="520" unicode="â"/>
<glyph d="M487 1q-21 -33 -41 -45q-66 -41 -125 -36q-8 9 -14.5 30.5t-9.5 39.5l-3 17q-4 -2 -26 -11t-39 -14.5t-28 -5.5q-83 0 -137 41t-54 119q0 30 7 55q20 73 75 119q50 41 127 41q27 0 61 -8v26q0 11 -0.5 21.5t-1 15.5t-0.5 6q-5 30 -12.5 35.5t-22.5 -0.5q-50 -11 -74 -23 q-4 -2 -15.5 -9t-18.5 -11t-17.5 -12t-19.5 -16q-20 13 -37 77q-4 15 -4.5 40.5t3.5 36.5q86 60 185 60q47 0 83 -14q88 -27 111 -104q14 -42 14 -121q0 -11 -1 -40t-1 -43q-1 -44 -1 -87q0 -151 37 -180zM400 829l-7 -35q-5 -35 -52 -93q-29 -33 -76 -33q-26 0 -54 13 q-15 9 -31 29q-18 24 -24 24q-22 -4 -40 -60l-3 -9l-1 -5l-63 21q17 68 41.5 102.5t76.5 34.5q30 0 65 -37q15 -17 29 -19q18 -2 30 12l6 6q6 6 8.5 9t7.5 10.5t7 13.5t4 14.5t1 17.5zM282 212l-8 8q-22 22 -52 22q-14 0 -25.5 -31t-11.5 -56q0 -62 30 -62q21 0 41.5 10.5 t26.5 31.5z" glyph-name="atilde" horiz-adv-x="500" unicode="ã"/>
<glyph d="M487 3q-21 -33 -41 -45q-66 -41 -125 -36q-8 9 -14.5 30.5t-9.5 39.5l-3 17q-4 -2 -26 -11t-39 -14.5t-28 -5.5q-83 0 -137 41t-54 119q0 30 7 55q20 73 75 119q50 41 127 41q27 0 61 -8v26q0 11 -0.5 21.5t-1 15.5t-0.5 6q-5 30 -12.5 35.5t-22.5 -0.5q-50 -11 -74 -23 q-4 -2 -15.5 -9t-18.5 -11t-17.5 -12t-19.5 -16q-20 13 -37 77q-4 15 -4.5 40.5t3.5 36.5q86 60 185 60q47 0 83 -14q88 -27 111 -104q14 -42 14 -121q0 -11 -1 -40t-1 -43q-1 -44 -1 -87q0 -151 37 -180zM282 214l-8 8q-22 22 -52 22q-14 0 -25.5 -31t-11.5 -56 q0 -62 30 -62q21 0 41.5 10.5t26.5 31.5zM402 794v-1q13 -19 13 -44q0 -76 -68 -81q-38 0 -56.5 21.5t-18.5 50.5q0 72 72 78q42 0 58 -24zM204 743q-2 -34 -19.5 -58t-55.5 -24q-32 0 -52 22.5t-20 48.5q0 31 21.5 52.5t56.5 21.5q32 0 50.5 -17.5t18.5 -45.5z" glyph-name="adieresis" horiz-adv-x="487" unicode="ä"/>
<glyph d="M489 5q-21 -33 -41 -45q-66 -41 -125 -36q-8 9 -14.5 30.5t-9.5 39.5l-3 17q-4 -2 -26 -11t-39 -14.5t-28 -5.5q-83 0 -137 41t-54 119q0 30 7 55q20 73 75 119q50 41 127 41q27 0 61 -8v26q0 11 -0.5 21.5t-1 15.5t-0.5 6q-5 30 -12.5 35.5t-22.5 -0.5q-50 -11 -74 -23 q-4 -2 -15.5 -9t-18.5 -11t-17.5 -12t-19.5 -16q-20 13 -37 77q-4 15 -4.5 40.5t3.5 36.5q86 60 185 60q47 0 83 -14q88 -27 111 -104q14 -42 14 -121q0 -11 -1 -40t-1 -43q-1 -44 -1 -87q0 -151 37 -180zM284 216l-8 8q-22 22 -52 22q-14 0 -25.5 -31t-11.5 -56 q0 -62 30 -62q21 0 41.5 10.5t26.5 31.5zM391 752q0 -46 -35 -83.5t-93 -37.5q-25 0 -48 4.5t-47.5 15.5t-39.5 35t-15 59q0 29 5 53.5t18 51t41 42t69 15.5q73 0 109 -42t36 -113zM294 752q0 37 -10.5 55.5t-37.5 18.5q-37 0 -37 -81q0 -33 54 -33q16 0 23.5 13t7.5 27z " glyph-name="aring" horiz-adv-x="498" unicode="å"/>
<glyph d="M753 246l-280 -54q44 -92 168 -92q10 0 115 14q-13 -103 -69 -200l-70 13q-83 17 -136 43q-60 32 -105 82q-78 -78 -160 -78q-85 0 -139 48q-64 59 -64 135q0 30 7 57q20 77 75 125q48 42 125 42q33 0 63 -9v11q0 46 -1 61q0 5 -0.5 12t-0.5 9q0 23 -4 27q-2 1 -8 1 q-21 0 -63 -21l1 1q-18 -9 -65 -58q-61 51 -70 89q-8 35 -8 66q85 64 183 64q41 0 83 -14q51 -17 79 -51q51 28 115 24h-1q116 -7 174.5 -95t55.5 -252zM429 329l146 23q-5 54 -12 73q-16 34 -50 36q-26 2 -56 -58q-17 -31 -28 -74zM291 192q1 4 6 17l-12 9q0 2 -5 5l3 -1 q-42 31 -60 31q-19 0 -32.5 -25.5t-13.5 -51.5q0 -72 39 -72q20 0 44 30t32 59z" glyph-name="ae" horiz-adv-x="791" unicode="æ"/>
<glyph d="M437 72l-19 -8q-17 -13 -67 -36q48 -60 48 -86q0 -54 -7 -82q-14 -45 -48 -72.5t-82 -27.5q-20 0 -36 6q-38 11 -57.5 39t-8.5 69q10 34 42.5 58t68.5 14q-10 45 -42 54q-85 2 -118 26l1 -1q-97 62 -97 217q0 16 2 56q11 98 81 167q68 65 163 65q90 0 158 -57q3 -3 8 -10 t7 -9l-79 -145q-8 15 -16.5 27t-16 19t-13.5 12.5t-11 8t-9 3.5t-6 1l-2 1q-76 -16 -84 -113q-4 -20 1.5 -60.5t12.5 -45.5l5 -4l12 -8t14.5 -7t15.5 -3q84 7 136 59z" glyph-name="ccedilla" horiz-adv-x="457" unicode="ç"/>
<glyph d="M487 250l-283 -51q36 -90 156 -90q10 0 113 14q-12 -102 -66 -191l-71 13q-84 14 -135 41h1q-98 47 -135 116q-48 88 -48 193q0 63 22 120q35 84 92 126.5t131 37.5h-1q230 -14 224 -329zM189 325q19 4 56.5 10t54.5 9q-4 55 -9 69q-12 29 -38 29q-12 1 -28 -13.5 t-24 -37.5q-12 -36 -12 -66zM48 786q87 63 116 71q16 -20 68.5 -67.5t96.5 -84.5l44 -37l-60 -49q-223 133 -265 167z" glyph-name="egrave" horiz-adv-x="504" unicode="è"/>
<glyph d="M489 252l-283 -51q36 -90 156 -90q10 0 113 14q-12 -102 -66 -191l-71 13q-84 14 -135 41h1q-98 47 -135 116q-48 88 -48 193q0 63 22 120q35 84 92 126.5t131 37.5h-1q230 -14 224 -329zM191 327q19 4 56.5 10t54.5 9q-4 55 -9 69q-12 29 -38 29q-12 1 -28 -13.5 t-24 -37.5q-12 -36 -12 -66zM466 789q-18 -14 -85.5 -55t-126.5 -75l-58 -34l-61 48q175 141 213 185q14 -3 43.5 -20.5t52.5 -33.5z" glyph-name="eacute" horiz-adv-x="504" unicode="é"/>
<glyph d="M484 243l-283 -51q36 -90 156 -90q10 0 113 14q-12 -102 -66 -191l-71 13q-84 14 -135 41h1q-98 47 -135 116q-48 88 -48 193q0 63 22 120q35 84 92 126.5t131 37.5h-1q230 -14 224 -329zM186 318q19 4 56.5 10t54.5 9q-4 55 -9 69q-12 29 -38 29q-12 1 -28 -13.5 t-24 -37.5q-12 -36 -12 -66zM411 666l-75 -68l-106 117l-87 -111l-96 64l143 163h72z" glyph-name="ecircumflex" horiz-adv-x="511" unicode="ê"/>
<glyph d="M486 256l-283 -51q36 -90 156 -90q10 0 113 14q-12 -102 -66 -191l-71 13q-84 14 -135 41h1q-98 47 -135 116q-48 88 -48 193q0 63 22 120q35 84 92 126.5t131 37.5h-1q230 -14 224 -329zM188 331q19 4 56.5 10t54.5 9q-4 55 -9 69q-12 29 -38 29q-12 1 -28 -13.5 t-24 -37.5q-12 -36 -12 -66zM400 750v-1q13 -20 13 -44q0 -76 -68 -81q-38 0 -56.5 21.5t-18.5 50.5q0 72 72 78q42 0 58 -24zM202 699q-2 -34 -19.5 -58t-55.5 -24q-32 0 -52 22.5t-20 48.5q0 31 21.5 52.5t56.5 21.5q32 0 50.5 -17.5t18.5 -45.5z" glyph-name="edieresis" horiz-adv-x="504" unicode="ë"/>
<glyph d="M247 -18q-57 -9 -87 -10q-27 2 -82 14q0 218 -19 488q87 22 170 8q3 -43 6.5 -123.5t5.5 -120.5q6 -132 6 -256zM-78 752q87 63 116 71q16 -20 68.5 -67t96.5 -84l44 -38l-60 -49q-223 133 -265 167z" glyph-name="igrave" horiz-adv-x="291" unicode="ì"/>
<glyph d="M222 -18q-57 -9 -87 -10q-27 2 -82 14q0 218 -19 488q87 22 170 8q3 -43 6.5 -123.5t5.5 -120.5q6 -132 6 -256zM352 739q-18 -14 -85.5 -55t-126.5 -75l-58 -34l-61 48q175 141 213 185q14 -3 43.5 -20.5t52.5 -33.5z" glyph-name="iacute" horiz-adv-x="265" unicode="í"/>
<glyph d="M230 -18q-57 -9 -87 -10q-27 2 -82 14q0 218 -19 488q87 22 170 8q3 -43 6.5 -123.5t5.5 -120.5q6 -132 6 -256zM296 638l-75 -68l-106 117l-87 -111l-96 64l143 163h72z" glyph-name="icircumflex" horiz-adv-x="278" unicode="î"/>
<glyph d="M234 -18q-57 -9 -87 -10q-27 2 -82 14q0 218 -19 488q87 22 170 8q3 -43 6.5 -123.5t5.5 -120.5q6 -132 6 -256zM274 737v-1q13 -20 13 -44q0 -76 -68 -81q-38 0 -56.5 21.5t-18.5 50.5q0 72 72 78q42 0 58 -24zM76 686q-2 -34 -19.5 -58t-55.5 -24q-32 0 -52 22.5 t-20 48.5q0 31 21.5 52.5t56.5 21.5q32 0 50.5 -17.5t18.5 -45.5z" glyph-name="idieresis" horiz-adv-x="285" unicode="ï"/>
<glyph d="M340 795l-18 -20q-2 -2 -12 -18t-18 -27q87 -74 143.5 -168t65.5 -184v-1q3 -36 3 -75q0 -122 -60 -209q-65 -92 -177 -92q-109 0 -185 96q-69 87 -69 194q0 99 76 174h-1q34 34 97.5 43.5t105.5 -5.5h8q-20 48 -99 110q-47 -59 -64 -84l-79 67q31 44 58 74 q-43 25 -80 35l86 129q47 -20 89 -45q16 23 50 75zM337 276q0 15 -4 29q-5 28 -37.5 52t-58.5 24q-22 0 -35.5 -21t-17 -44.5t-2.5 -44.5q5 -43 40 -76q26 -28 49 -31q14 -2 29 6.5t23 23.5q14 22 14 82z" glyph-name="eth" horiz-adv-x="518" unicode="ð"/>
<glyph d="M489 228q-11 -66 -11 -187q0 -19 7 -86l-196 36q3 22 5.5 47t3.5 32q0 1 6.5 56t12.5 86q13 74 13 121q0 45 -15 55q-13 -1 -52.5 -35.5t-62.5 -63.5q2 -62 0 -119q-7 -164 -1 -187l-174 -15q11 220 12 285q0 26 -4 92.5t-8 119.5l-4 53q90 22 164 14q4 -80 4 -92 q20 31 57.5 61t72.5 38q17 3 40.5 1t37.5 -8q104 -45 104 -188q0 -2 -12 -116zM422 773l-7 -35q-5 -35 -52 -93q-29 -33 -76 -33q-26 0 -54 13q-15 9 -31 29q-18 24 -24 24q-15 -3 -24.5 -21t-18.5 -48q-1 -3 -1 -5l-63 21q17 68 41.5 102.5t76.5 34.5q30 0 65 -37 q15 -17 29 -19q18 -2 30 12l6 6q6 6 8.5 9t7.5 10.5t7 13.5t4 14.5t1 17.5z" glyph-name="ntilde" horiz-adv-x="536" unicode="ñ"/>
<glyph d="M487 259q-2 -119 -44 -176q-68 -88 -176 -88q-117 0 -189 92q-59 73 -59 184q0 93 62 163t166 70q88 0 162.5 -65.5t77.5 -179.5zM328 271q-9 32 -37 60t-56 28q-26 0 -41 -23.5t-15 -45.5q0 -46 27 -92.5t62 -46.5q32 0 49.5 22.5t17.5 47.5q0 17 -7 50zM64 705 q87 63 116 71q16 -20 68.5 -67.5t96.5 -84.5l44 -37l-60 -49q-223 133 -265 167z" glyph-name="ograve" horiz-adv-x="522" unicode="ò"/>
<glyph d="M484 259q-2 -119 -44 -176q-68 -88 -176 -88q-117 0 -189 92q-59 73 -59 184q0 93 62 163t166 70q88 0 162.5 -65.5t77.5 -179.5zM325 271q-9 32 -37 60t-56 28q-26 0 -41 -23.5t-15 -45.5q0 -46 27 -92.5t62 -46.5q32 0 49.5 22.5t17.5 47.5q0 17 -7 50zM446 746 q-14 -15 -80 -56t-126.5 -75t-63.5 -33l-61 48q175 141 213 185q14 -3 43.5 -20.5t52.5 -32.5z" glyph-name="oacute" horiz-adv-x="519" unicode="ó"/>
<glyph d="M504 259q-2 -119 -44 -176q-68 -88 -176 -88q-117 0 -189 92q-59 73 -59 184q0 93 62 163t166 70q88 0 162.5 -65.5t77.5 -179.5zM345 271q-9 32 -37 60t-56 28q-26 0 -41 -23.5t-15 -45.5q0 -46 27 -92.5t62 -46.5q32 0 49.5 22.5t17.5 47.5q0 17 -7 50zM435 608 l-75 -68l-106 117l-87 -111l-96 64l143 163h72z" glyph-name="ocircumflex" horiz-adv-x="539" unicode="ô"/>
<glyph d="M493 259q-2 -119 -44 -176q-68 -88 -176 -88q-117 0 -189 92q-59 73 -59 184q0 93 62 163t166 70q88 0 162.5 -65.5t77.5 -179.5zM411 722l-7 -35q-5 -35 -52 -93q-29 -33 -76 -33q-26 0 -54 13q-15 9 -31 29q-18 24 -24 24q-22 -4 -40 -60l-3 -9l-1 -5l-63 21 q17 68 41.5 102.5t76.5 34.5q30 0 65 -37q15 -17 29 -19q18 -2 30 12l6 6q6 6 8.5 9t7.5 10.5t7 13.5t4 14.5t1 17.5zM334 271q-9 32 -37 60t-56 28q-26 0 -41 -23.5t-15 -45.5q0 -46 27 -92.5t62 -46.5q32 0 49.5 22.5t17.5 47.5q0 17 -7 50z" glyph-name="otilde" horiz-adv-x="528" unicode="õ"/>
<glyph d="M493 259q-2 -119 -44 -176q-68 -88 -176 -88q-117 0 -189 92q-59 73 -59 184q0 93 62 163t166 70q88 0 162.5 -65.5t77.5 -179.5zM334 271q-9 32 -37 60t-56 28q-26 0 -41 -23.5t-15 -45.5q0 -46 27 -92.5t62 -46.5q32 0 49.5 22.5t17.5 47.5q0 17 -7 50zM403 693v-1 q13 -20 13 -44q0 -76 -68 -81q-38 0 -56.5 21.5t-18.5 50.5q0 72 72 78q42 0 58 -24zM205 642q-2 -34 -19.5 -58t-55.5 -24q-32 0 -52 22.5t-20 48.5q0 31 21.5 52.5t56.5 21.5q32 0 50.5 -17.5t18.5 -45.5z" glyph-name="odieresis" horiz-adv-x="528" unicode="ö"/>
<glyph d="M480 255h-52q-33 -4 -185 -8q-136 -4 -210 -11l-14 143q75 7 225 11q133 4 221 13zM369 134q0 -40 -31.5 -72t-82.5 -32t-81.5 29t-30.5 70t32.5 70.5t83.5 29.5q43 0 76.5 -28.5t33.5 -66.5zM338 524q0 -40 -31.5 -71.5t-82.5 -31.5q-50 0 -80.5 29t-30.5 69 q0 41 32.5 70.5t83.5 29.5q43 0 76 -28t33 -67z" glyph-name="divide" horiz-adv-x="510" unicode="÷"/>
<glyph d="M500 697l-30 -54l-81 -184q98 -70 102 -200q-2 -119 -44 -176q-68 -88 -176 -88q-35 0 -72 10q-73 -178 -87 -228q-10 3 -28.5 12.5t-32.5 17.5l-14 8l89 227q-25 19 -44 45q-59 73 -59 184q0 93 62 163t166 70q21 0 51 -7q67 178 78 221q22 6 62 0.5t58 -21.5zM351 271 q-9 24 -19 41q-13 -28 -24 -58l-54 -131q9 -3 20 -3q41 0 63.5 28.5t22.5 59.5q0 20 -9 63zM161 294q0 -51 26 -101q6 17 13.5 36l15 38t10.5 27l31 83q-16 4 -24 4q-35 0 -53.5 -29.5t-18.5 -57.5z" glyph-name="oslash" horiz-adv-x="516" unicode="ø"/>
<glyph d="M502 8l-28 -13q-29 -14 -132 -19q-1 10 -4 27t-5.5 31t-5 26.5t-2.5 13.5q-24 -26 -65 -42t-76 -16q-163 0 -163 199q0 49 8 137q5 45 13 147q97 0 167 -18q-13 -195 -13 -233q0 -67 26 -78q10 0 30 14t26 26q16 36 24 76q5 8 3 66t-2 62q70 12 82 12q29 0 87 -21 q-3 -39 -3 -63q0 -74 6 -130q17 -147 27 -204zM74 686q87 63 116 71q16 -20 68.5 -67.5t96.5 -84.5l44 -37l-60 -49q-223 133 -265 167z" glyph-name="ugrave" horiz-adv-x="537" unicode="ù"/>
<glyph d="M506 8l-28 -13q-29 -14 -132 -19q-1 10 -4 27t-5.5 31t-5 26.5t-2.5 13.5q-24 -26 -65 -42t-76 -16q-163 0 -163 199q0 49 8 137q5 45 13 147q97 0 167 -18q-13 -195 -13 -233q0 -67 26 -78q10 0 30 14t26 26q16 36 24 76q5 8 3 66t-2 62q70 12 82 12q28 0 87 -21 q-3 -39 -3 -63q0 -74 6 -130q17 -147 27 -204zM509 701q-18 -14 -85.5 -55t-125.5 -75l-59 -34l-61 48q175 141 213 185q14 -3 43.5 -20.5t51.5 -33.5z" glyph-name="uacute" horiz-adv-x="541" unicode="ú"/>
<glyph d="M503 8l-28 -13q-29 -14 -132 -19q-1 10 -4 27t-5.5 31t-5 26.5t-2.5 13.5q-24 -26 -65 -42t-76 -16q-163 0 -163 199q0 49 8 137q5 45 13 147q97 0 167 -18q-13 -195 -13 -233q0 -67 26 -78q10 0 30 14t26 26q16 36 24 76q5 8 3 66t-2 62q70 12 82 12q28 0 87 -21 q-3 -39 -3 -63q0 -74 6 -130q17 -147 27 -204zM443 601l-75 -68l-106 117l-87 -111l-96 64l143 163h72z" glyph-name="ucircumflex" horiz-adv-x="538" unicode="û"/>
<glyph d="M506 8l-28 -13q-29 -14 -132 -19q-1 10 -4 27t-5.5 31t-5 26.5t-2.5 13.5q-24 -26 -65 -42t-76 -16q-163 0 -163 199q0 49 8 137q5 45 13 147q97 0 167 -18q-13 -195 -13 -233q0 -67 26 -78q10 0 30 14t26 26q16 36 24 76q5 8 3 66t-2 62q70 12 82 12q28 0 87 -21 q-3 -39 -3 -63q0 -74 6 -130q17 -147 27 -204zM422 687v-1q13 -20 13 -44q0 -76 -68 -81q-38 0 -56.5 21.5t-18.5 50.5q0 72 72 78q42 0 58 -24zM224 636q-2 -34 -19.5 -58t-55.5 -24q-32 0 -52 22.5t-20 48.5q0 31 21.5 52.5t56.5 21.5q32 0 50.5 -17.5t18.5 -45.5z" glyph-name="udieresis" horiz-adv-x="541" unicode="ü"/>
<glyph d="M555 464l-25 -49h1q-100 -214 -235 -550q-9 -25 -20.5 -51.5t-20.5 -49.5q-7 -20 -31 -81.5t-36 -93.5q-109 8 -151 64q3 5 7 15t8.5 20t5.5 13v-1q26 60 66 176l78 193q-84 60 -138 157q-29 52 -46 122t-18 130q49 29 174 6q15 -122 50 -192q21 -43 42 -72 q63 145 142 311q101 -12 147 -67zM514 695q-18 -14 -85.5 -55t-126.5 -75l-58 -34l-61 48q175 141 213 185q14 -3 43.5 -20.5t52.5 -33.5z" glyph-name="yacute" horiz-adv-x="578" unicode="ý"/>
<glyph d="M543 322q0 -70 -42 -137q-77 -128 -197 -123q-16 1 -30.5 6t-22 10t-20 15t-15.5 12q2 0 1.5 -92.5t-0.5 -116.5q0 -44 -11 -174l-6 -57q-85 -7 -168 13q13 154 16 221q2 44 -4 108q2 48 1 86.5t-3 125t-2 133.5q-1 9 -2.5 149t-16.5 188l168 16q-1 -7 12 -113 q9 -61 7 -94q67 59 110 59q87 0 141 -51q84 -78 84 -184zM369 331q-1 27 -14 53t-34 33q-23 8 -60 -17q-3 -1 -4 -2q-32 -18 -47 -61v-103q54 -37 78 -35q25 2 52 41q30 45 29 91z" glyph-name="thorn" horiz-adv-x="569" unicode="þ"/>
</font>
</defs>
</svg>
